<?xml version="1.0" encoding="UTF-8" standalone="no"?>
<!DOCTYPE svg PUBLIC "-//W3C//DTD SVG 1.1//EN"
 "http://www.w3.org/Graphics/SVG/1.1/DTD/svg11.dtd">
<!-- Generated by graphviz version 5.0.0 (20220707.1540)
 -->
<!-- Title: dependencies Pages: 1 -->
<svg width="619pt" height="174pt"
 viewBox="0.00 0.00 619.00 173.80" xmlns="http://www.w3.org/2000/svg" xmlns:xlink="http://www.w3.org/1999/xlink">
<g id="graph0" class="graph" transform="scale(1 1) rotate(0) translate(4 169.8)">
<title>dependencies</title>
<polygon fill="white" stroke="transparent" points="-4,4 -4,-169.8 615,-169.8 615,4 -4,4"/>
<text text-anchor="middle" x="305.5" y="-8.2" font-family="sans-serif" font-size="14.00">dependencies</text>
<g id="clust1" class="cluster">
<title>cluster_PatientModule</title>
<polygon fill="none" stroke="black" stroke-dasharray="1,5" points="8,-32.8 8,-157.8 603,-157.8 603,-32.8 8,-32.8"/>
</g>
<g id="clust6" class="cluster">
<title>cluster_PatientModule_imports</title>
<polygon fill="none" stroke="black" points="435,-40.8 435,-92.8 595,-92.8 595,-40.8 435,-40.8"/>
</g>
<g id="clust2" class="cluster">
<title>cluster_PatientModule_declarations</title>
<polygon fill="none" stroke="black" points="16,-40.8 16,-92.8 427,-92.8 427,-40.8 16,-40.8"/>
</g>
<!-- PAddComponent -->
<g id="node1" class="node">
<title>PAddComponent</title>
<polygon fill="#ffffb3" stroke="black" points="418.73,-84.8 305.27,-84.8 305.27,-48.8 418.73,-48.8 418.73,-84.8"/>
<text text-anchor="middle" x="362" y="-62.6" font-family="Times,serif" font-size="14.00">PAddComponent</text>
</g>
<!-- PatientModule -->
<g id="node4" class="node">
<title>PatientModule</title>
<polygon fill="#8dd3c7" stroke="black" points="342.44,-149.8 339.44,-153.8 318.44,-153.8 315.44,-149.8 243.56,-149.8 243.56,-113.8 342.44,-113.8 342.44,-149.8"/>
<text text-anchor="middle" x="293" y="-127.6" font-family="Times,serif" font-size="14.00">PatientModule</text>
</g>
<!-- PAddComponent&#45;&gt;PatientModule -->
<g id="edge1" class="edge">
<title>PAddComponent&#45;&gt;PatientModule</title>
<path fill="none" stroke="black" d="M323.8,-84.91C323.8,-84.91 323.8,-103.79 323.8,-103.79"/>
<polygon fill="black" stroke="black" points="320.3,-103.79 323.8,-113.79 327.3,-103.79 320.3,-103.79"/>
</g>
<!-- PDeleteComponent -->
<g id="node2" class="node">
<title>PDeleteComponent</title>
<polygon fill="#ffffb3" stroke="black" points="287.65,-84.8 162.35,-84.8 162.35,-48.8 287.65,-48.8 287.65,-84.8"/>
<text text-anchor="middle" x="225" y="-62.6" font-family="Times,serif" font-size="14.00">PDeleteComponent</text>
</g>
<!-- PDeleteComponent&#45;&gt;PatientModule -->
<g id="edge2" class="edge">
<title>PDeleteComponent&#45;&gt;PatientModule</title>
<path fill="none" stroke="black" d="M265.8,-84.91C265.8,-84.91 265.8,-103.79 265.8,-103.79"/>
<polygon fill="black" stroke="black" points="262.3,-103.79 265.8,-113.79 269.3,-103.79 262.3,-103.79"/>
</g>
<!-- PIndexComponent -->
<g id="node3" class="node">
<title>PIndexComponent</title>
<polygon fill="#ffffb3" stroke="black" points="144.49,-84.8 23.51,-84.8 23.51,-48.8 144.49,-48.8 144.49,-84.8"/>
<text text-anchor="middle" x="84" y="-62.6" font-family="Times,serif" font-size="14.00">PIndexComponent</text>
</g>
<!-- PIndexComponent&#45;&gt;PatientModule -->
<g id="edge3" class="edge">
<title>PIndexComponent&#45;&gt;PatientModule</title>
<path fill="none" stroke="black" d="M84,-84.91C84,-104.14 84,-131.8 84,-131.8 84,-131.8 233.73,-131.8 233.73,-131.8"/>
<polygon fill="black" stroke="black" points="233.73,-135.3 243.73,-131.8 233.73,-128.3 233.73,-135.3"/>
</g>
<!-- PatientRoutingModule -->
<g id="node5" class="node">
<title>PatientRoutingModule</title>
<polygon fill="#8dd3c7" stroke="black" points="586.55,-84.8 583.55,-88.8 562.55,-88.8 559.55,-84.8 443.45,-84.8 443.45,-48.8 586.55,-48.8 586.55,-84.8"/>
<text text-anchor="middle" x="515" y="-62.6" font-family="Times,serif" font-size="14.00">PatientRoutingModule</text>
</g>
<!-- PatientRoutingModule&#45;&gt;PatientModule -->
<g id="edge4" class="edge">
<title>PatientRoutingModule&#45;&gt;PatientModule</title>
<path fill="none" stroke="black" d="M515,-84.91C515,-104.14 515,-131.8 515,-131.8 515,-131.8 352.27,-131.8 352.27,-131.8"/>
<polygon fill="black" stroke="black" points="352.27,-128.3 342.27,-131.8 352.27,-135.3 352.27,-128.3"/>
</g>
</g>
</svg>
