<?xml version="1.0" encoding="UTF-8" standalone="no"?>
<!DOCTYPE svg PUBLIC "-//W3C//DTD SVG 1.1//EN"
 "http://www.w3.org/Graphics/SVG/1.1/DTD/svg11.dtd">
<!-- Generated by graphviz version 5.0.0 (20220707.1540)
 -->
<!-- Title: dependencies Pages: 1 -->
<svg width="1405pt" height="174pt"
 viewBox="0.00 0.00 1405.00 173.80" xmlns="http://www.w3.org/2000/svg" xmlns:xlink="http://www.w3.org/1999/xlink">
<g id="graph0" class="graph" transform="scale(1 1) rotate(0) translate(4 169.8)">
<title>dependencies</title>
<polygon fill="white" stroke="transparent" points="-4,4 -4,-169.8 1401,-169.8 1401,4 -4,4"/>
<text text-anchor="middle" x="698.5" y="-8.2" font-family="sans-serif" font-size="14.00">dependencies</text>
<g id="clust1" class="cluster">
<title>cluster_PublicModule</title>
<polygon fill="none" stroke="black" stroke-dasharray="1,5" points="8,-32.8 8,-157.8 1389,-157.8 1389,-32.8 8,-32.8"/>
</g>
<g id="clust11" class="cluster">
<title>cluster_PublicModule_imports</title>
<polygon fill="none" stroke="black" points="1225,-40.8 1225,-92.8 1381,-92.8 1381,-40.8 1225,-40.8"/>
</g>
<g id="clust2" class="cluster">
<title>cluster_PublicModule_declarations</title>
<polygon fill="none" stroke="black" points="16,-40.8 16,-92.8 1217,-92.8 1217,-40.8 16,-40.8"/>
</g>
<!-- HomeComponent -->
<g id="node1" class="node">
<title>HomeComponent</title>
<polygon fill="#ffffb3" stroke="black" points="1208.55,-84.8 1093.45,-84.8 1093.45,-48.8 1208.55,-48.8 1208.55,-84.8"/>
<text text-anchor="middle" x="1151" y="-62.6" font-family="Times,serif" font-size="14.00">HomeComponent</text>
</g>
<!-- PublicModule -->
<g id="node9" class="node">
<title>PublicModule</title>
<polygon fill="#8dd3c7" stroke="black" points="764.83,-149.8 761.83,-153.8 740.83,-153.8 737.83,-149.8 669.17,-149.8 669.17,-113.8 764.83,-113.8 764.83,-149.8"/>
<text text-anchor="middle" x="717" y="-127.6" font-family="Times,serif" font-size="14.00">PublicModule</text>
</g>
<!-- HomeComponent&#45;&gt;PublicModule -->
<g id="edge1" class="edge">
<title>HomeComponent&#45;&gt;PublicModule</title>
<path fill="none" stroke="black" d="M1151,-84.93C1151,-105.37 1151,-135.8 1151,-135.8 1151,-135.8 774.69,-135.8 774.69,-135.8"/>
<polygon fill="black" stroke="black" points="774.69,-132.3 764.69,-135.8 774.69,-139.3 774.69,-132.3"/>
</g>
<!-- HopitauxComponent -->
<g id="node2" class="node">
<title>HopitauxComponent</title>
<polygon fill="#ffffb3" stroke="black" points="1075.94,-84.8 942.06,-84.8 942.06,-48.8 1075.94,-48.8 1075.94,-84.8"/>
<text text-anchor="middle" x="1009" y="-62.6" font-family="Times,serif" font-size="14.00">HopitauxComponent</text>
</g>
<!-- HopitauxComponent&#45;&gt;PublicModule -->
<g id="edge2" class="edge">
<title>HopitauxComponent&#45;&gt;PublicModule</title>
<path fill="none" stroke="black" d="M1009,-85.07C1009,-103.36 1009,-128.8 1009,-128.8 1009,-128.8 774.89,-128.8 774.89,-128.8"/>
<polygon fill="black" stroke="black" points="774.89,-125.3 764.89,-128.8 774.89,-132.3 774.89,-125.3"/>
</g>
<!-- HoraireComponent -->
<g id="node3" class="node">
<title>HoraireComponent</title>
<polygon fill="#ffffb3" stroke="black" points="924.08,-84.8 799.92,-84.8 799.92,-48.8 924.08,-48.8 924.08,-84.8"/>
<text text-anchor="middle" x="862" y="-62.6" font-family="Times,serif" font-size="14.00">HoraireComponent</text>
</g>
<!-- HoraireComponent&#45;&gt;PublicModule -->
<g id="edge3" class="edge">
<title>HoraireComponent&#45;&gt;PublicModule</title>
<path fill="none" stroke="black" d="M862,-84.81C862,-100.85 862,-121.8 862,-121.8 862,-121.8 774.88,-121.8 774.88,-121.8"/>
<polygon fill="black" stroke="black" points="774.88,-118.3 764.88,-121.8 774.88,-125.3 774.88,-118.3"/>
</g>
<!-- MedecinComponent -->
<g id="node4" class="node">
<title>MedecinComponent</title>
<polygon fill="#ffffb3" stroke="black" points="782.31,-84.8 651.69,-84.8 651.69,-48.8 782.31,-48.8 782.31,-84.8"/>
<text text-anchor="middle" x="717" y="-62.6" font-family="Times,serif" font-size="14.00">MedecinComponent</text>
</g>
<!-- MedecinComponent&#45;&gt;PublicModule -->
<g id="edge4" class="edge">
<title>MedecinComponent&#45;&gt;PublicModule</title>
<path fill="none" stroke="black" d="M717,-84.91C717,-84.91 717,-103.79 717,-103.79"/>
<polygon fill="black" stroke="black" points="713.5,-103.79 717,-113.79 720.5,-103.79 713.5,-103.79"/>
</g>
<!-- PublicHeaderComponent -->
<g id="node5" class="node">
<title>PublicHeaderComponent</title>
<polygon fill="#ffffb3" stroke="black" points="633.53,-84.8 476.47,-84.8 476.47,-48.8 633.53,-48.8 633.53,-84.8"/>
<text text-anchor="middle" x="555" y="-62.6" font-family="Times,serif" font-size="14.00">PublicHeaderComponent</text>
</g>
<!-- PublicHeaderComponent&#45;&gt;PublicModule -->
<g id="edge5" class="edge">
<title>PublicHeaderComponent&#45;&gt;PublicModule</title>
<path fill="none" stroke="black" d="M555,-84.81C555,-100.85 555,-121.8 555,-121.8 555,-121.8 659.27,-121.8 659.27,-121.8"/>
<polygon fill="black" stroke="black" points="659.27,-125.3 669.27,-121.8 659.27,-118.3 659.27,-125.3"/>
</g>
<!-- PublicLayoutComponent -->
<g id="node6" class="node">
<title>PublicLayoutComponent</title>
<polygon fill="#ffffb3" stroke="black" points="458.27,-84.8 301.73,-84.8 301.73,-48.8 458.27,-48.8 458.27,-84.8"/>
<text text-anchor="middle" x="380" y="-62.6" font-family="Times,serif" font-size="14.00">PublicLayoutComponent</text>
</g>
<!-- PublicLayoutComponent&#45;&gt;PublicModule -->
<g id="edge6" class="edge">
<title>PublicLayoutComponent&#45;&gt;PublicModule</title>
<path fill="none" stroke="black" d="M380,-85.07C380,-103.36 380,-128.8 380,-128.8 380,-128.8 659.07,-128.8 659.07,-128.8"/>
<polygon fill="black" stroke="black" points="659.07,-132.3 669.07,-128.8 659.07,-125.3 659.07,-132.3"/>
</g>
<!-- RdvComponent -->
<g id="node7" class="node">
<title>RdvComponent</title>
<polygon fill="#ffffb3" stroke="black" points="283.17,-84.8 178.83,-84.8 178.83,-48.8 283.17,-48.8 283.17,-84.8"/>
<text text-anchor="middle" x="231" y="-62.6" font-family="Times,serif" font-size="14.00">RdvComponent</text>
</g>
<!-- RdvComponent&#45;&gt;PublicModule -->
<g id="edge7" class="edge">
<title>RdvComponent&#45;&gt;PublicModule</title>
<path fill="none" stroke="black" d="M231,-84.93C231,-105.37 231,-135.8 231,-135.8 231,-135.8 659.07,-135.8 659.07,-135.8"/>
<polygon fill="black" stroke="black" points="659.07,-139.3 669.07,-135.8 659.07,-132.3 659.07,-139.3"/>
</g>
<!-- SpecialiteComponent -->
<g id="node8" class="node">
<title>SpecialiteComponent</title>
<polygon fill="#ffffb3" stroke="black" points="160.03,-84.8 23.97,-84.8 23.97,-48.8 160.03,-48.8 160.03,-84.8"/>
<text text-anchor="middle" x="92" y="-62.6" font-family="Times,serif" font-size="14.00">SpecialiteComponent</text>
</g>
<!-- SpecialiteComponent&#45;&gt;PublicModule -->
<g id="edge8" class="edge">
<title>SpecialiteComponent&#45;&gt;PublicModule</title>
<path fill="none" stroke="black" d="M92,-84.81C92,-107.29 92,-142.8 92,-142.8 92,-142.8 659.25,-142.8 659.25,-142.8"/>
<polygon fill="black" stroke="black" points="659.25,-146.3 669.25,-142.8 659.25,-139.3 659.25,-146.3"/>
</g>
<!-- PublicRoutingModule -->
<g id="node10" class="node">
<title>PublicRoutingModule</title>
<polygon fill="#8dd3c7" stroke="black" points="1373.45,-84.8 1370.45,-88.8 1349.45,-88.8 1346.45,-84.8 1232.55,-84.8 1232.55,-48.8 1373.45,-48.8 1373.45,-84.8"/>
<text text-anchor="middle" x="1303" y="-62.6" font-family="Times,serif" font-size="14.00">PublicRoutingModule</text>
</g>
<!-- PublicRoutingModule&#45;&gt;PublicModule -->
<g id="edge9" class="edge">
<title>PublicRoutingModule&#45;&gt;PublicModule</title>
<path fill="none" stroke="black" d="M1303,-84.81C1303,-107.29 1303,-142.8 1303,-142.8 1303,-142.8 774.95,-142.8 774.95,-142.8"/>
<polygon fill="black" stroke="black" points="774.95,-139.3 764.95,-142.8 774.95,-146.3 774.95,-139.3"/>
</g>
</g>
</svg>
