<?xml version="1.0" encoding="UTF-8" standalone="no"?>
<!DOCTYPE svg PUBLIC "-//W3C//DTD SVG 1.1//EN"
 "http://www.w3.org/Graphics/SVG/1.1/DTD/svg11.dtd">
<!-- Generated by graphviz version 5.0.0 (20220707.1540)
 -->
<!-- Title: dependencies Pages: 1 -->
<svg width="6703pt" height="247pt"
 viewBox="0.00 0.00 6703.00 246.80" xmlns="http://www.w3.org/2000/svg" xmlns:xlink="http://www.w3.org/1999/xlink">
<g id="graph0" class="graph" transform="scale(1 1) rotate(0) translate(4 242.8)">
<title>dependencies</title>
<polygon fill="white" stroke="transparent" points="-4,4 -4,-242.8 6699,-242.8 6699,4 -4,4"/>
<text text-anchor="middle" x="3347.5" y="-8.2" font-family="sans-serif" font-size="14.00">dependencies</text>
<g id="clust1" class="cluster">
<title>cluster_AdminModule</title>
<polygon fill="none" stroke="black" stroke-dasharray="1,5" points="8,-32.8 8,-157.8 686,-157.8 686,-32.8 8,-32.8"/>
</g>
<g id="clust2" class="cluster">
<title>cluster_AdminModule_declarations</title>
<polygon fill="none" stroke="black" points="184,-40.8 184,-92.8 678,-92.8 678,-40.8 184,-40.8"/>
</g>
<g id="clust6" class="cluster">
<title>cluster_AdminModule_imports</title>
<polygon fill="none" stroke="black" points="16,-40.8 16,-92.8 176,-92.8 176,-40.8 16,-40.8"/>
</g>
<g id="clust16" class="cluster">
<title>cluster_AppModule</title>
<polygon fill="none" stroke="black" stroke-dasharray="1,5" points="694,-32.8 694,-230.8 1252,-230.8 1252,-32.8 694,-32.8"/>
</g>
<g id="clust17" class="cluster">
<title>cluster_AppModule_declarations</title>
<polygon fill="none" stroke="black" points="854,-40.8 854,-92.8 1244,-92.8 1244,-40.8 854,-40.8"/>
</g>
<g id="clust21" class="cluster">
<title>cluster_AppModule_imports</title>
<polygon fill="none" stroke="black" points="702,-40.8 702,-92.8 846,-92.8 846,-40.8 702,-40.8"/>
</g>
<g id="clust23" class="cluster">
<title>cluster_AppModule_bootstrap</title>
<polygon fill="none" stroke="black" points="928,-170.8 928,-222.8 1052,-222.8 1052,-170.8 928,-170.8"/>
</g>
<g id="clust31" class="cluster">
<title>cluster_AuthModule</title>
<polygon fill="none" stroke="black" stroke-dasharray="1,5" points="1260,-32.8 1260,-157.8 1702,-157.8 1702,-32.8 1260,-32.8"/>
</g>
<g id="clust32" class="cluster">
<title>cluster_AuthModule_declarations</title>
<polygon fill="none" stroke="black" points="1424,-40.8 1424,-92.8 1694,-92.8 1694,-40.8 1424,-40.8"/>
</g>
<g id="clust35" class="cluster">
<title>cluster_AuthModule_imports</title>
<polygon fill="none" stroke="black" points="1268,-40.8 1268,-92.8 1416,-92.8 1416,-40.8 1268,-40.8"/>
</g>
<g id="clust45" class="cluster">
<title>cluster_HoraireModule</title>
<polygon fill="none" stroke="black" stroke-dasharray="1,5" points="1710,-32.8 1710,-157.8 2450,-157.8 2450,-32.8 1710,-32.8"/>
</g>
<g id="clust46" class="cluster">
<title>cluster_HoraireModule_declarations</title>
<polygon fill="none" stroke="black" points="1890,-40.8 1890,-92.8 2442,-92.8 2442,-40.8 1890,-40.8"/>
</g>
<g id="clust51" class="cluster">
<title>cluster_HoraireModule_imports</title>
<polygon fill="none" stroke="black" points="1718,-40.8 1718,-92.8 1882,-92.8 1882,-40.8 1718,-40.8"/>
</g>
<g id="clust61" class="cluster">
<title>cluster_MedecinModule</title>
<polygon fill="none" stroke="black" stroke-dasharray="1,5" points="2458,-32.8 2458,-157.8 3213,-157.8 3213,-32.8 2458,-32.8"/>
</g>
<g id="clust62" class="cluster">
<title>cluster_MedecinModule_declarations</title>
<polygon fill="none" stroke="black" points="2644,-40.8 2644,-92.8 3205,-92.8 3205,-40.8 2644,-40.8"/>
</g>
<g id="clust67" class="cluster">
<title>cluster_MedecinModule_imports</title>
<polygon fill="none" stroke="black" points="2466,-40.8 2466,-92.8 2636,-92.8 2636,-40.8 2466,-40.8"/>
</g>
<g id="clust77" class="cluster">
<title>cluster_PatientModule</title>
<polygon fill="none" stroke="black" stroke-dasharray="1,5" points="3221,-32.8 3221,-157.8 3816,-157.8 3816,-32.8 3221,-32.8"/>
</g>
<g id="clust78" class="cluster">
<title>cluster_PatientModule_declarations</title>
<polygon fill="none" stroke="black" points="3397,-40.8 3397,-92.8 3808,-92.8 3808,-40.8 3397,-40.8"/>
</g>
<g id="clust82" class="cluster">
<title>cluster_PatientModule_imports</title>
<polygon fill="none" stroke="black" points="3229,-40.8 3229,-92.8 3389,-92.8 3389,-40.8 3229,-40.8"/>
</g>
<g id="clust92" class="cluster">
<title>cluster_PublicModule</title>
<polygon fill="none" stroke="black" stroke-dasharray="1,5" points="3824,-32.8 3824,-157.8 5205,-157.8 5205,-32.8 3824,-32.8"/>
</g>
<g id="clust93" class="cluster">
<title>cluster_PublicModule_declarations</title>
<polygon fill="none" stroke="black" points="3996,-40.8 3996,-92.8 5197,-92.8 5197,-40.8 3996,-40.8"/>
</g>
<g id="clust102" class="cluster">
<title>cluster_PublicModule_imports</title>
<polygon fill="none" stroke="black" points="3832,-40.8 3832,-92.8 3988,-92.8 3988,-40.8 3832,-40.8"/>
</g>
<g id="clust112" class="cluster">
<title>cluster_SpecialiteModule</title>
<polygon fill="none" stroke="black" stroke-dasharray="1,5" points="5213,-32.8 5213,-157.8 5955,-157.8 5955,-32.8 5213,-32.8"/>
</g>
<g id="clust113" class="cluster">
<title>cluster_SpecialiteModule_declarations</title>
<polygon fill="none" stroke="black" points="5405,-40.8 5405,-92.8 5947,-92.8 5947,-40.8 5405,-40.8"/>
</g>
<g id="clust118" class="cluster">
<title>cluster_SpecialiteModule_imports</title>
<polygon fill="none" stroke="black" points="5221,-40.8 5221,-92.8 5397,-92.8 5397,-40.8 5221,-40.8"/>
</g>
<g id="clust128" class="cluster">
<title>cluster_UserModule</title>
<polygon fill="none" stroke="black" stroke-dasharray="1,5" points="5963,-32.8 5963,-157.8 6687,-157.8 6687,-32.8 5963,-32.8"/>
</g>
<g id="clust129" class="cluster">
<title>cluster_UserModule_declarations</title>
<polygon fill="none" stroke="black" points="6127,-40.8 6127,-92.8 6679,-92.8 6679,-40.8 6127,-40.8"/>
</g>
<g id="clust134" class="cluster">
<title>cluster_UserModule_imports</title>
<polygon fill="none" stroke="black" points="5971,-40.8 5971,-92.8 6119,-92.8 6119,-40.8 5971,-40.8"/>
</g>
<!-- AdminLayoutComponent -->
<g id="node1" class="node">
<title>AdminLayoutComponent</title>
<polygon fill="#ffffb3" stroke="black" points="669.88,-84.8 510.12,-84.8 510.12,-48.8 669.88,-48.8 669.88,-84.8"/>
<text text-anchor="middle" x="590" y="-62.6" font-family="Times,serif" font-size="14.00">AdminLayoutComponent</text>
</g>
<!-- AdminModule -->
<g id="node4" class="node">
<title>AdminModule</title>
<polygon fill="#8dd3c7" stroke="black" points="390.44,-149.8 387.44,-153.8 366.44,-153.8 363.44,-149.8 291.56,-149.8 291.56,-113.8 390.44,-113.8 390.44,-149.8"/>
<text text-anchor="middle" x="341" y="-127.6" font-family="Times,serif" font-size="14.00">AdminModule</text>
</g>
<!-- AdminLayoutComponent&#45;&gt;AdminModule -->
<g id="edge1" class="edge">
<title>AdminLayoutComponent&#45;&gt;AdminModule</title>
<path fill="none" stroke="black" d="M590,-84.82C590,-102.17 590,-125.8 590,-125.8 590,-125.8 400.49,-125.8 400.49,-125.8"/>
<polygon fill="black" stroke="black" points="400.49,-122.3 390.49,-125.8 400.49,-129.3 400.49,-122.3"/>
</g>
<!-- DashboardComponent -->
<g id="node2" class="node">
<title>DashboardComponent</title>
<polygon fill="#ffffb3" stroke="black" points="491.98,-84.8 350.02,-84.8 350.02,-48.8 491.98,-48.8 491.98,-84.8"/>
<text text-anchor="middle" x="421" y="-62.6" font-family="Times,serif" font-size="14.00">DashboardComponent</text>
</g>
<!-- DashboardComponent&#45;&gt;AdminModule -->
<g id="edge2" class="edge">
<title>DashboardComponent&#45;&gt;AdminModule</title>
<path fill="none" stroke="black" d="M370.12,-84.91C370.12,-84.91 370.12,-103.79 370.12,-103.79"/>
<polygon fill="black" stroke="black" points="366.62,-103.79 370.12,-113.79 373.62,-103.79 366.62,-103.79"/>
</g>
<!-- SedemenuComponent -->
<g id="node3" class="node">
<title>SedemenuComponent</title>
<polygon fill="#ffffb3" stroke="black" points="331.65,-84.8 192.35,-84.8 192.35,-48.8 331.65,-48.8 331.65,-84.8"/>
<text text-anchor="middle" x="262" y="-62.6" font-family="Times,serif" font-size="14.00">SedemenuComponent</text>
</g>
<!-- SedemenuComponent&#45;&gt;AdminModule -->
<g id="edge3" class="edge">
<title>SedemenuComponent&#45;&gt;AdminModule</title>
<path fill="none" stroke="black" d="M311.8,-84.91C311.8,-84.91 311.8,-103.79 311.8,-103.79"/>
<polygon fill="black" stroke="black" points="308.3,-103.79 311.8,-113.79 315.3,-103.79 308.3,-103.79"/>
</g>
<!-- AdminRoutingModule -->
<g id="node5" class="node">
<title>AdminRoutingModule</title>
<polygon fill="#8dd3c7" stroke="black" points="167.56,-84.8 164.56,-88.8 143.56,-88.8 140.56,-84.8 24.44,-84.8 24.44,-48.8 167.56,-48.8 167.56,-84.8"/>
<text text-anchor="middle" x="96" y="-62.6" font-family="Times,serif" font-size="14.00">AdminRoutingModule</text>
</g>
<!-- AdminRoutingModule&#45;&gt;AdminModule -->
<g id="edge4" class="edge">
<title>AdminRoutingModule&#45;&gt;AdminModule</title>
<path fill="none" stroke="black" d="M96,-84.91C96,-104.14 96,-131.8 96,-131.8 96,-131.8 281.72,-131.8 281.72,-131.8"/>
<polygon fill="black" stroke="black" points="281.72,-135.3 291.72,-131.8 281.72,-128.3 281.72,-135.3"/>
</g>
<!-- AppComponent -->
<g id="node6" class="node">
<title>AppComponent</title>
<polygon fill="#ffffb3" stroke="black" points="1235.94,-84.8 1130.06,-84.8 1130.06,-48.8 1235.94,-48.8 1235.94,-84.8"/>
<text text-anchor="middle" x="1183" y="-62.6" font-family="Times,serif" font-size="14.00">AppComponent</text>
</g>
<!-- AppModule -->
<g id="node9" class="node">
<title>AppModule</title>
<polygon fill="#8dd3c7" stroke="black" points="1031.66,-149.8 1028.66,-153.8 1007.66,-153.8 1004.66,-149.8 948.34,-149.8 948.34,-113.8 1031.66,-113.8 1031.66,-149.8"/>
<text text-anchor="middle" x="990" y="-127.6" font-family="Times,serif" font-size="14.00">AppModule</text>
</g>
<!-- AppComponent&#45;&gt;AppModule -->
<g id="edge5" class="edge">
<title>AppComponent&#45;&gt;AppModule</title>
<path fill="none" stroke="black" d="M1183,-84.82C1183,-102.17 1183,-125.8 1183,-125.8 1183,-125.8 1041.88,-125.8 1041.88,-125.8"/>
<polygon fill="black" stroke="black" points="1041.88,-122.3 1031.88,-125.8 1041.88,-129.3 1041.88,-122.3"/>
</g>
<!-- ErrorComponent -->
<g id="node7" class="node">
<title>ErrorComponent</title>
<polygon fill="#ffffb3" stroke="black" points="1112.37,-84.8 1001.63,-84.8 1001.63,-48.8 1112.37,-48.8 1112.37,-84.8"/>
<text text-anchor="middle" x="1057" y="-62.6" font-family="Times,serif" font-size="14.00">ErrorComponent</text>
</g>
<!-- ErrorComponent&#45;&gt;AppModule -->
<g id="edge6" class="edge">
<title>ErrorComponent&#45;&gt;AppModule</title>
<path fill="none" stroke="black" d="M1016.7,-84.91C1016.7,-84.91 1016.7,-103.79 1016.7,-103.79"/>
<polygon fill="black" stroke="black" points="1013.2,-103.79 1016.7,-113.79 1020.2,-103.79 1013.2,-103.79"/>
</g>
<!-- HeaderComponent -->
<g id="node8" class="node">
<title>HeaderComponent</title>
<polygon fill="#ffffb3" stroke="black" points="983.75,-84.8 862.25,-84.8 862.25,-48.8 983.75,-48.8 983.75,-84.8"/>
<text text-anchor="middle" x="923" y="-62.6" font-family="Times,serif" font-size="14.00">HeaderComponent</text>
</g>
<!-- HeaderComponent&#45;&gt;AppModule -->
<g id="edge7" class="edge">
<title>HeaderComponent&#45;&gt;AppModule</title>
<path fill="none" stroke="black" d="M966.02,-84.91C966.02,-84.91 966.02,-103.79 966.02,-103.79"/>
<polygon fill="black" stroke="black" points="962.52,-103.79 966.02,-113.79 969.52,-103.79 962.52,-103.79"/>
</g>
<!-- AppComponent  -->
<g id="node11" class="node">
<title>AppComponent </title>
<polygon fill="#80b1d3" stroke="black" points="1044.44,-214.8 935.56,-214.8 935.56,-178.8 1044.44,-178.8 1044.44,-214.8"/>
<text text-anchor="middle" x="990" y="-192.6" font-family="Times,serif" font-size="14.00">AppComponent </text>
</g>
<!-- AppModule&#45;&gt;AppComponent  -->
<g id="edge9" class="edge">
<title>AppModule&#45;&gt;AppComponent </title>
<path fill="none" stroke="black" stroke-dasharray="1,5" d="M990,-149.91C990,-149.91 990,-168.79 990,-168.79"/>
<polygon fill="black" stroke="black" points="986.5,-168.79 990,-178.79 993.5,-168.79 986.5,-168.79"/>
</g>
<!-- AppRoutingModule -->
<g id="node10" class="node">
<title>AppRoutingModule</title>
<polygon fill="#8dd3c7" stroke="black" points="838.28,-84.8 835.28,-88.8 814.28,-88.8 811.28,-84.8 709.72,-84.8 709.72,-48.8 838.28,-48.8 838.28,-84.8"/>
<text text-anchor="middle" x="774" y="-62.6" font-family="Times,serif" font-size="14.00">AppRoutingModule</text>
</g>
<!-- AppRoutingModule&#45;&gt;AppModule -->
<g id="edge8" class="edge">
<title>AppRoutingModule&#45;&gt;AppModule</title>
<path fill="none" stroke="black" d="M774,-85.08C774,-106.12 774,-137.8 774,-137.8 774,-137.8 938.1,-137.8 938.1,-137.8"/>
<polygon fill="black" stroke="black" points="938.1,-141.3 948.1,-137.8 938.1,-134.3 938.1,-141.3"/>
</g>
<!-- LoginComponent -->
<g id="node12" class="node">
<title>LoginComponent</title>
<polygon fill="#ffffb3" stroke="black" points="1686.27,-84.8 1571.73,-84.8 1571.73,-48.8 1686.27,-48.8 1686.27,-84.8"/>
<text text-anchor="middle" x="1629" y="-62.6" font-family="Times,serif" font-size="14.00">LoginComponent</text>
</g>
<!-- AuthModule -->
<g id="node14" class="node">
<title>AuthModule</title>
<polygon fill="#8dd3c7" stroke="black" points="1536.55,-149.8 1533.55,-153.8 1512.55,-153.8 1509.55,-149.8 1449.45,-149.8 1449.45,-113.8 1536.55,-113.8 1536.55,-149.8"/>
<text text-anchor="middle" x="1493" y="-127.6" font-family="Times,serif" font-size="14.00">AuthModule</text>
</g>
<!-- LoginComponent&#45;&gt;AuthModule -->
<g id="edge10" class="edge">
<title>LoginComponent&#45;&gt;AuthModule</title>
<path fill="none" stroke="black" d="M1629,-85.09C1629,-107.01 1629,-140.8 1629,-140.8 1629,-140.8 1546.78,-140.8 1546.78,-140.8"/>
<polygon fill="black" stroke="black" points="1546.78,-137.3 1536.78,-140.8 1546.78,-144.3 1546.78,-137.3"/>
</g>
<!-- LogoutComponent -->
<g id="node13" class="node">
<title>LogoutComponent</title>
<polygon fill="#ffffb3" stroke="black" points="1553.77,-84.8 1432.23,-84.8 1432.23,-48.8 1553.77,-48.8 1553.77,-84.8"/>
<text text-anchor="middle" x="1493" y="-62.6" font-family="Times,serif" font-size="14.00">LogoutComponent</text>
</g>
<!-- LogoutComponent&#45;&gt;AuthModule -->
<g id="edge11" class="edge">
<title>LogoutComponent&#45;&gt;AuthModule</title>
<path fill="none" stroke="black" d="M1493,-84.91C1493,-84.91 1493,-103.79 1493,-103.79"/>
<polygon fill="black" stroke="black" points="1489.5,-103.79 1493,-113.79 1496.5,-103.79 1489.5,-103.79"/>
</g>
<!-- AuthRoutingModule -->
<g id="node15" class="node">
<title>AuthRoutingModule</title>
<polygon fill="#8dd3c7" stroke="black" points="1408.17,-84.8 1405.17,-88.8 1384.17,-88.8 1381.17,-84.8 1275.83,-84.8 1275.83,-48.8 1408.17,-48.8 1408.17,-84.8"/>
<text text-anchor="middle" x="1342" y="-62.6" font-family="Times,serif" font-size="14.00">AuthRoutingModule</text>
</g>
<!-- AuthRoutingModule&#45;&gt;AuthModule -->
<g id="edge12" class="edge">
<title>AuthRoutingModule&#45;&gt;AuthModule</title>
<path fill="none" stroke="black" d="M1342,-85.08C1342,-106.12 1342,-137.8 1342,-137.8 1342,-137.8 1439.32,-137.8 1439.32,-137.8"/>
<polygon fill="black" stroke="black" points="1439.32,-141.3 1449.32,-137.8 1439.32,-134.3 1439.32,-141.3"/>
</g>
<!-- HAddComponent -->
<g id="node16" class="node">
<title>HAddComponent</title>
<polygon fill="#ffffb3" stroke="black" points="2433.55,-84.8 2318.45,-84.8 2318.45,-48.8 2433.55,-48.8 2433.55,-84.8"/>
<text text-anchor="middle" x="2376" y="-62.6" font-family="Times,serif" font-size="14.00">HAddComponent</text>
</g>
<!-- HoraireModule -->
<g id="node20" class="node">
<title>HoraireModule</title>
<polygon fill="#8dd3c7" stroke="black" points="2148.3,-149.8 2145.3,-153.8 2124.3,-153.8 2121.3,-149.8 2045.7,-149.8 2045.7,-113.8 2148.3,-113.8 2148.3,-149.8"/>
<text text-anchor="middle" x="2097" y="-127.6" font-family="Times,serif" font-size="14.00">HoraireModule</text>
</g>
<!-- HAddComponent&#45;&gt;HoraireModule -->
<g id="edge13" class="edge">
<title>HAddComponent&#45;&gt;HoraireModule</title>
<path fill="none" stroke="black" d="M2376,-84.81C2376,-107.29 2376,-142.8 2376,-142.8 2376,-142.8 2158.17,-142.8 2158.17,-142.8"/>
<polygon fill="black" stroke="black" points="2158.17,-139.3 2148.17,-142.8 2158.17,-146.3 2158.17,-139.3"/>
</g>
<!-- HDeleteComponent -->
<g id="node17" class="node">
<title>HDeleteComponent</title>
<polygon fill="#ffffb3" stroke="black" points="2299.97,-84.8 2172.03,-84.8 2172.03,-48.8 2299.97,-48.8 2299.97,-84.8"/>
<text text-anchor="middle" x="2236" y="-62.6" font-family="Times,serif" font-size="14.00">HDeleteComponent</text>
</g>
<!-- HDeleteComponent&#45;&gt;HoraireModule -->
<g id="edge14" class="edge">
<title>HDeleteComponent&#45;&gt;HoraireModule</title>
<path fill="none" stroke="black" d="M2236,-84.93C2236,-105.37 2236,-135.8 2236,-135.8 2236,-135.8 2158.36,-135.8 2158.36,-135.8"/>
<polygon fill="black" stroke="black" points="2158.36,-132.3 2148.36,-135.8 2158.36,-139.3 2158.36,-132.3"/>
</g>
<!-- HEditComponent -->
<g id="node18" class="node">
<title>HEditComponent</title>
<polygon fill="#ffffb3" stroke="black" points="2154.27,-84.8 2039.73,-84.8 2039.73,-48.8 2154.27,-48.8 2154.27,-84.8"/>
<text text-anchor="middle" x="2097" y="-62.6" font-family="Times,serif" font-size="14.00">HEditComponent</text>
</g>
<!-- HEditComponent&#45;&gt;HoraireModule -->
<g id="edge15" class="edge">
<title>HEditComponent&#45;&gt;HoraireModule</title>
<path fill="none" stroke="black" d="M2097,-84.91C2097,-84.91 2097,-103.79 2097,-103.79"/>
<polygon fill="black" stroke="black" points="2093.5,-103.79 2097,-113.79 2100.5,-103.79 2093.5,-103.79"/>
</g>
<!-- HIndexComponent -->
<g id="node19" class="node">
<title>HIndexComponent</title>
<polygon fill="#ffffb3" stroke="black" points="2021.82,-84.8 1898.18,-84.8 1898.18,-48.8 2021.82,-48.8 2021.82,-84.8"/>
<text text-anchor="middle" x="1960" y="-62.6" font-family="Times,serif" font-size="14.00">HIndexComponent</text>
</g>
<!-- HIndexComponent&#45;&gt;HoraireModule -->
<g id="edge16" class="edge">
<title>HIndexComponent&#45;&gt;HoraireModule</title>
<path fill="none" stroke="black" d="M1960,-84.83C1960,-101.2 1960,-122.8 1960,-122.8 1960,-122.8 2035.6,-122.8 2035.6,-122.8"/>
<polygon fill="black" stroke="black" points="2035.6,-126.3 2045.6,-122.8 2035.6,-119.3 2035.6,-126.3"/>
</g>
<!-- HoraireRoutingModule -->
<g id="node21" class="node">
<title>HoraireRoutingModule</title>
<polygon fill="#8dd3c7" stroke="black" points="1873.92,-84.8 1870.92,-88.8 1849.92,-88.8 1846.92,-84.8 1726.08,-84.8 1726.08,-48.8 1873.92,-48.8 1873.92,-84.8"/>
<text text-anchor="middle" x="1800" y="-62.6" font-family="Times,serif" font-size="14.00">HoraireRoutingModule</text>
</g>
<!-- HoraireRoutingModule&#45;&gt;HoraireModule -->
<g id="edge17" class="edge">
<title>HoraireRoutingModule&#45;&gt;HoraireModule</title>
<path fill="none" stroke="black" d="M1800,-84.91C1800,-104.14 1800,-131.8 1800,-131.8 1800,-131.8 2035.61,-131.8 2035.61,-131.8"/>
<polygon fill="black" stroke="black" points="2035.61,-135.3 2045.61,-131.8 2035.61,-128.3 2035.61,-135.3"/>
</g>
<!-- MAddComponent -->
<g id="node22" class="node">
<title>MAddComponent</title>
<polygon fill="#ffffb3" stroke="black" points="3196.89,-84.8 3079.11,-84.8 3079.11,-48.8 3196.89,-48.8 3196.89,-84.8"/>
<text text-anchor="middle" x="3138" y="-62.6" font-family="Times,serif" font-size="14.00">MAddComponent</text>
</g>
<!-- MedecinModule -->
<g id="node26" class="node">
<title>MedecinModule</title>
<polygon fill="#8dd3c7" stroke="black" points="2908.03,-149.8 2905.03,-153.8 2884.03,-153.8 2881.03,-149.8 2799.97,-149.8 2799.97,-113.8 2908.03,-113.8 2908.03,-149.8"/>
<text text-anchor="middle" x="2854" y="-127.6" font-family="Times,serif" font-size="14.00">MedecinModule</text>
</g>
<!-- MAddComponent&#45;&gt;MedecinModule -->
<g id="edge18" class="edge">
<title>MAddComponent&#45;&gt;MedecinModule</title>
<path fill="none" stroke="black" d="M3138,-85.09C3138,-107.01 3138,-140.8 3138,-140.8 3138,-140.8 2918.09,-140.8 2918.09,-140.8"/>
<polygon fill="black" stroke="black" points="2918.09,-137.3 2908.09,-140.8 2918.09,-144.3 2918.09,-137.3"/>
</g>
<!-- MDeleteComponent -->
<g id="node23" class="node">
<title>MDeleteComponent</title>
<polygon fill="#ffffb3" stroke="black" points="3061.31,-84.8 2930.69,-84.8 2930.69,-48.8 3061.31,-48.8 3061.31,-84.8"/>
<text text-anchor="middle" x="2996" y="-62.6" font-family="Times,serif" font-size="14.00">MDeleteComponent</text>
</g>
<!-- MDeleteComponent&#45;&gt;MedecinModule -->
<g id="edge19" class="edge">
<title>MDeleteComponent&#45;&gt;MedecinModule</title>
<path fill="none" stroke="black" d="M2996,-84.91C2996,-104.14 2996,-131.8 2996,-131.8 2996,-131.8 2918.09,-131.8 2918.09,-131.8"/>
<polygon fill="black" stroke="black" points="2918.09,-128.3 2908.09,-131.8 2918.09,-135.3 2918.09,-128.3"/>
</g>
<!-- MEditComponent -->
<g id="node24" class="node">
<title>MEditComponent</title>
<polygon fill="#ffffb3" stroke="black" points="2912.61,-84.8 2795.39,-84.8 2795.39,-48.8 2912.61,-48.8 2912.61,-84.8"/>
<text text-anchor="middle" x="2854" y="-62.6" font-family="Times,serif" font-size="14.00">MEditComponent</text>
</g>
<!-- MEditComponent&#45;&gt;MedecinModule -->
<g id="edge20" class="edge">
<title>MEditComponent&#45;&gt;MedecinModule</title>
<path fill="none" stroke="black" d="M2854,-84.91C2854,-84.91 2854,-103.79 2854,-103.79"/>
<polygon fill="black" stroke="black" points="2850.5,-103.79 2854,-113.79 2857.5,-103.79 2850.5,-103.79"/>
</g>
<!-- MIndexComponent -->
<g id="node25" class="node">
<title>MIndexComponent</title>
<polygon fill="#ffffb3" stroke="black" points="2777.66,-84.8 2652.34,-84.8 2652.34,-48.8 2777.66,-48.8 2777.66,-84.8"/>
<text text-anchor="middle" x="2715" y="-62.6" font-family="Times,serif" font-size="14.00">MIndexComponent</text>
</g>
<!-- MIndexComponent&#45;&gt;MedecinModule -->
<g id="edge21" class="edge">
<title>MIndexComponent&#45;&gt;MedecinModule</title>
<path fill="none" stroke="black" d="M2715,-84.81C2715,-100.85 2715,-121.8 2715,-121.8 2715,-121.8 2789.86,-121.8 2789.86,-121.8"/>
<polygon fill="black" stroke="black" points="2789.86,-125.3 2799.86,-121.8 2789.86,-118.3 2789.86,-125.3"/>
</g>
<!-- MedecinRoutingModule -->
<g id="node27" class="node">
<title>MedecinRoutingModule</title>
<polygon fill="#8dd3c7" stroke="black" points="2627.65,-84.8 2624.65,-88.8 2603.65,-88.8 2600.65,-84.8 2474.35,-84.8 2474.35,-48.8 2627.65,-48.8 2627.65,-84.8"/>
<text text-anchor="middle" x="2551" y="-62.6" font-family="Times,serif" font-size="14.00">MedecinRoutingModule</text>
</g>
<!-- MedecinRoutingModule&#45;&gt;MedecinModule -->
<g id="edge22" class="edge">
<title>MedecinRoutingModule&#45;&gt;MedecinModule</title>
<path fill="none" stroke="black" d="M2551,-85.07C2551,-103.36 2551,-128.8 2551,-128.8 2551,-128.8 2789.83,-128.8 2789.83,-128.8"/>
<polygon fill="black" stroke="black" points="2789.83,-132.3 2799.83,-128.8 2789.83,-125.3 2789.83,-132.3"/>
</g>
<!-- PAddComponent -->
<g id="node28" class="node">
<title>PAddComponent</title>
<polygon fill="#ffffb3" stroke="black" points="3799.73,-84.8 3686.27,-84.8 3686.27,-48.8 3799.73,-48.8 3799.73,-84.8"/>
<text text-anchor="middle" x="3743" y="-62.6" font-family="Times,serif" font-size="14.00">PAddComponent</text>
</g>
<!-- PatientModule -->
<g id="node31" class="node">
<title>PatientModule</title>
<polygon fill="#8dd3c7" stroke="black" points="3584.44,-149.8 3581.44,-153.8 3560.44,-153.8 3557.44,-149.8 3485.56,-149.8 3485.56,-113.8 3584.44,-113.8 3584.44,-149.8"/>
<text text-anchor="middle" x="3535" y="-127.6" font-family="Times,serif" font-size="14.00">PatientModule</text>
</g>
<!-- PAddComponent&#45;&gt;PatientModule -->
<g id="edge23" class="edge">
<title>PAddComponent&#45;&gt;PatientModule</title>
<path fill="none" stroke="black" d="M3743,-85.04C3743,-100.37 3743,-119.8 3743,-119.8 3743,-119.8 3594.29,-119.8 3594.29,-119.8"/>
<polygon fill="black" stroke="black" points="3594.29,-116.3 3584.29,-119.8 3594.29,-123.3 3594.29,-116.3"/>
</g>
<!-- PDeleteComponent -->
<g id="node29" class="node">
<title>PDeleteComponent</title>
<polygon fill="#ffffb3" stroke="black" points="3668.65,-84.8 3543.35,-84.8 3543.35,-48.8 3668.65,-48.8 3668.65,-84.8"/>
<text text-anchor="middle" x="3606" y="-62.6" font-family="Times,serif" font-size="14.00">PDeleteComponent</text>
</g>
<!-- PDeleteComponent&#45;&gt;PatientModule -->
<g id="edge24" class="edge">
<title>PDeleteComponent&#45;&gt;PatientModule</title>
<path fill="none" stroke="black" d="M3563.7,-84.91C3563.7,-84.91 3563.7,-103.79 3563.7,-103.79"/>
<polygon fill="black" stroke="black" points="3560.2,-103.79 3563.7,-113.79 3567.2,-103.79 3560.2,-103.79"/>
</g>
<!-- PIndexComponent -->
<g id="node30" class="node">
<title>PIndexComponent</title>
<polygon fill="#ffffb3" stroke="black" points="3525.49,-84.8 3404.51,-84.8 3404.51,-48.8 3525.49,-48.8 3525.49,-84.8"/>
<text text-anchor="middle" x="3465" y="-62.6" font-family="Times,serif" font-size="14.00">PIndexComponent</text>
</g>
<!-- PIndexComponent&#45;&gt;PatientModule -->
<g id="edge25" class="edge">
<title>PIndexComponent&#45;&gt;PatientModule</title>
<path fill="none" stroke="black" d="M3505.64,-84.91C3505.64,-84.91 3505.64,-103.79 3505.64,-103.79"/>
<polygon fill="black" stroke="black" points="3502.14,-103.79 3505.64,-113.79 3509.14,-103.79 3502.14,-103.79"/>
</g>
<!-- PatientRoutingModule -->
<g id="node32" class="node">
<title>PatientRoutingModule</title>
<polygon fill="#8dd3c7" stroke="black" points="3380.55,-84.8 3377.55,-88.8 3356.55,-88.8 3353.55,-84.8 3237.45,-84.8 3237.45,-48.8 3380.55,-48.8 3380.55,-84.8"/>
<text text-anchor="middle" x="3309" y="-62.6" font-family="Times,serif" font-size="14.00">PatientRoutingModule</text>
</g>
<!-- PatientRoutingModule&#45;&gt;PatientModule -->
<g id="edge26" class="edge">
<title>PatientRoutingModule&#45;&gt;PatientModule</title>
<path fill="none" stroke="black" d="M3309,-84.83C3309,-101.2 3309,-122.8 3309,-122.8 3309,-122.8 3475.68,-122.8 3475.68,-122.8"/>
<polygon fill="black" stroke="black" points="3475.68,-126.3 3485.68,-122.8 3475.68,-119.3 3475.68,-126.3"/>
</g>
<!-- HomeComponent -->
<g id="node33" class="node">
<title>HomeComponent</title>
<polygon fill="#ffffb3" stroke="black" points="5188.55,-84.8 5073.45,-84.8 5073.45,-48.8 5188.55,-48.8 5188.55,-84.8"/>
<text text-anchor="middle" x="5131" y="-62.6" font-family="Times,serif" font-size="14.00">HomeComponent</text>
</g>
<!-- PublicModule -->
<g id="node41" class="node">
<title>PublicModule</title>
<polygon fill="#8dd3c7" stroke="black" points="4582.83,-149.8 4579.83,-153.8 4558.83,-153.8 4555.83,-149.8 4487.17,-149.8 4487.17,-113.8 4582.83,-113.8 4582.83,-149.8"/>
<text text-anchor="middle" x="4535" y="-127.6" font-family="Times,serif" font-size="14.00">PublicModule</text>
</g>
<!-- HomeComponent&#45;&gt;PublicModule -->
<g id="edge27" class="edge">
<title>HomeComponent&#45;&gt;PublicModule</title>
<path fill="none" stroke="black" d="M5131,-85.02C5131,-105.17 5131,-134.8 5131,-134.8 5131,-134.8 4592.77,-134.8 4592.77,-134.8"/>
<polygon fill="black" stroke="black" points="4592.77,-131.3 4582.77,-134.8 4592.77,-138.3 4592.77,-131.3"/>
</g>
<!-- HopitauxComponent -->
<g id="node34" class="node">
<title>HopitauxComponent</title>
<polygon fill="#ffffb3" stroke="black" points="5055.94,-84.8 4922.06,-84.8 4922.06,-48.8 5055.94,-48.8 5055.94,-84.8"/>
<text text-anchor="middle" x="4989" y="-62.6" font-family="Times,serif" font-size="14.00">HopitauxComponent</text>
</g>
<!-- HopitauxComponent&#45;&gt;PublicModule -->
<g id="edge28" class="edge">
<title>HopitauxComponent&#45;&gt;PublicModule</title>
<path fill="none" stroke="black" d="M4989,-85.02C4989,-103.63 4989,-129.8 4989,-129.8 4989,-129.8 4592.73,-129.8 4592.73,-129.8"/>
<polygon fill="black" stroke="black" points="4592.73,-126.3 4582.73,-129.8 4592.73,-133.3 4592.73,-126.3"/>
</g>
<!-- HoraireComponent -->
<g id="node35" class="node">
<title>HoraireComponent</title>
<polygon fill="#ffffb3" stroke="black" points="4904.08,-84.8 4779.92,-84.8 4779.92,-48.8 4904.08,-48.8 4904.08,-84.8"/>
<text text-anchor="middle" x="4842" y="-62.6" font-family="Times,serif" font-size="14.00">HoraireComponent</text>
</g>
<!-- HoraireComponent&#45;&gt;PublicModule -->
<g id="edge29" class="edge">
<title>HoraireComponent&#45;&gt;PublicModule</title>
<path fill="none" stroke="black" d="M4842,-84.83C4842,-101.86 4842,-124.8 4842,-124.8 4842,-124.8 4592.97,-124.8 4592.97,-124.8"/>
<polygon fill="black" stroke="black" points="4592.97,-121.3 4582.97,-124.8 4592.97,-128.3 4592.97,-121.3"/>
</g>
<!-- MedecinComponent -->
<g id="node36" class="node">
<title>MedecinComponent</title>
<polygon fill="#ffffb3" stroke="black" points="4762.31,-84.8 4631.69,-84.8 4631.69,-48.8 4762.31,-48.8 4762.31,-84.8"/>
<text text-anchor="middle" x="4697" y="-62.6" font-family="Times,serif" font-size="14.00">MedecinComponent</text>
</g>
<!-- MedecinComponent&#45;&gt;PublicModule -->
<g id="edge30" class="edge">
<title>MedecinComponent&#45;&gt;PublicModule</title>
<path fill="none" stroke="black" d="M4697,-85.04C4697,-100.37 4697,-119.8 4697,-119.8 4697,-119.8 4592.73,-119.8 4592.73,-119.8"/>
<polygon fill="black" stroke="black" points="4592.73,-116.3 4582.73,-119.8 4592.73,-123.3 4592.73,-116.3"/>
</g>
<!-- PublicHeaderComponent -->
<g id="node37" class="node">
<title>PublicHeaderComponent</title>
<polygon fill="#ffffb3" stroke="black" points="4613.53,-84.8 4456.47,-84.8 4456.47,-48.8 4613.53,-48.8 4613.53,-84.8"/>
<text text-anchor="middle" x="4535" y="-62.6" font-family="Times,serif" font-size="14.00">PublicHeaderComponent</text>
</g>
<!-- PublicHeaderComponent&#45;&gt;PublicModule -->
<g id="edge31" class="edge">
<title>PublicHeaderComponent&#45;&gt;PublicModule</title>
<path fill="none" stroke="black" d="M4535,-84.91C4535,-84.91 4535,-103.79 4535,-103.79"/>
<polygon fill="black" stroke="black" points="4531.5,-103.79 4535,-113.79 4538.5,-103.79 4531.5,-103.79"/>
</g>
<!-- PublicLayoutComponent -->
<g id="node38" class="node">
<title>PublicLayoutComponent</title>
<polygon fill="#ffffb3" stroke="black" points="4438.27,-84.8 4281.73,-84.8 4281.73,-48.8 4438.27,-48.8 4438.27,-84.8"/>
<text text-anchor="middle" x="4360" y="-62.6" font-family="Times,serif" font-size="14.00">PublicLayoutComponent</text>
</g>
<!-- PublicLayoutComponent&#45;&gt;PublicModule -->
<g id="edge32" class="edge">
<title>PublicLayoutComponent&#45;&gt;PublicModule</title>
<path fill="none" stroke="black" d="M4360,-84.82C4360,-102.17 4360,-125.8 4360,-125.8 4360,-125.8 4477.18,-125.8 4477.18,-125.8"/>
<polygon fill="black" stroke="black" points="4477.18,-129.3 4487.18,-125.8 4477.18,-122.3 4477.18,-129.3"/>
</g>
<!-- RdvComponent -->
<g id="node39" class="node">
<title>RdvComponent</title>
<polygon fill="#ffffb3" stroke="black" points="4263.17,-84.8 4158.83,-84.8 4158.83,-48.8 4263.17,-48.8 4263.17,-84.8"/>
<text text-anchor="middle" x="4211" y="-62.6" font-family="Times,serif" font-size="14.00">RdvComponent</text>
</g>
<!-- RdvComponent&#45;&gt;PublicModule -->
<g id="edge33" class="edge">
<title>RdvComponent&#45;&gt;PublicModule</title>
<path fill="none" stroke="black" d="M4211,-84.91C4211,-104.14 4211,-131.8 4211,-131.8 4211,-131.8 4477.19,-131.8 4477.19,-131.8"/>
<polygon fill="black" stroke="black" points="4477.19,-135.3 4487.19,-131.8 4477.19,-128.3 4477.19,-135.3"/>
</g>
<!-- SpecialiteComponent -->
<g id="node40" class="node">
<title>SpecialiteComponent</title>
<polygon fill="#ffffb3" stroke="black" points="4140.03,-84.8 4003.97,-84.8 4003.97,-48.8 4140.03,-48.8 4140.03,-84.8"/>
<text text-anchor="middle" x="4072" y="-62.6" font-family="Times,serif" font-size="14.00">SpecialiteComponent</text>
</g>
<!-- SpecialiteComponent&#45;&gt;PublicModule -->
<g id="edge34" class="edge">
<title>SpecialiteComponent&#45;&gt;PublicModule</title>
<path fill="none" stroke="black" d="M4072,-85.08C4072,-106.12 4072,-137.8 4072,-137.8 4072,-137.8 4477.19,-137.8 4477.19,-137.8"/>
<polygon fill="black" stroke="black" points="4477.19,-141.3 4487.19,-137.8 4477.19,-134.3 4477.19,-141.3"/>
</g>
<!-- PublicRoutingModule -->
<g id="node42" class="node">
<title>PublicRoutingModule</title>
<polygon fill="#8dd3c7" stroke="black" points="3980.45,-84.8 3977.45,-88.8 3956.45,-88.8 3953.45,-84.8 3839.55,-84.8 3839.55,-48.8 3980.45,-48.8 3980.45,-84.8"/>
<text text-anchor="middle" x="3910" y="-62.6" font-family="Times,serif" font-size="14.00">PublicRoutingModule</text>
</g>
<!-- PublicRoutingModule&#45;&gt;PublicModule -->
<g id="edge35" class="edge">
<title>PublicRoutingModule&#45;&gt;PublicModule</title>
<path fill="none" stroke="black" d="M3910,-85.05C3910,-107.82 3910,-143.8 3910,-143.8 3910,-143.8 4477.25,-143.8 4477.25,-143.8"/>
<polygon fill="black" stroke="black" points="4477.25,-147.3 4487.25,-143.8 4477.25,-140.3 4477.25,-147.3"/>
</g>
<!-- SAddComponent -->
<g id="node43" class="node">
<title>SAddComponent</title>
<polygon fill="#ffffb3" stroke="black" points="5938.73,-84.8 5825.27,-84.8 5825.27,-48.8 5938.73,-48.8 5938.73,-84.8"/>
<text text-anchor="middle" x="5882" y="-62.6" font-family="Times,serif" font-size="14.00">SAddComponent</text>
</g>
<!-- SpecialiteModule -->
<g id="node47" class="node">
<title>SpecialiteModule</title>
<polygon fill="#8dd3c7" stroke="black" points="5665.25,-149.8 5662.25,-153.8 5641.25,-153.8 5638.25,-149.8 5550.75,-149.8 5550.75,-113.8 5665.25,-113.8 5665.25,-149.8"/>
<text text-anchor="middle" x="5608" y="-127.6" font-family="Times,serif" font-size="14.00">SpecialiteModule</text>
</g>
<!-- SAddComponent&#45;&gt;SpecialiteModule -->
<g id="edge36" class="edge">
<title>SAddComponent&#45;&gt;SpecialiteModule</title>
<path fill="none" stroke="black" d="M5882,-85.07C5882,-103.36 5882,-128.8 5882,-128.8 5882,-128.8 5675.44,-128.8 5675.44,-128.8"/>
<polygon fill="black" stroke="black" points="5675.44,-125.3 5665.44,-128.8 5675.44,-132.3 5675.44,-125.3"/>
</g>
<!-- SDeleteComponent -->
<g id="node44" class="node">
<title>SDeleteComponent</title>
<polygon fill="#ffffb3" stroke="black" points="5807.65,-84.8 5682.35,-84.8 5682.35,-48.8 5807.65,-48.8 5807.65,-84.8"/>
<text text-anchor="middle" x="5745" y="-62.6" font-family="Times,serif" font-size="14.00">SDeleteComponent</text>
</g>
<!-- SDeleteComponent&#45;&gt;SpecialiteModule -->
<g id="edge37" class="edge">
<title>SDeleteComponent&#45;&gt;SpecialiteModule</title>
<path fill="none" stroke="black" d="M5745,-84.81C5745,-100.85 5745,-121.8 5745,-121.8 5745,-121.8 5675.31,-121.8 5675.31,-121.8"/>
<polygon fill="black" stroke="black" points="5675.31,-118.3 5665.31,-121.8 5675.31,-125.3 5675.31,-118.3"/>
</g>
<!-- SEditComponent -->
<g id="node45" class="node">
<title>SEditComponent</title>
<polygon fill="#ffffb3" stroke="black" points="5664.45,-84.8 5551.55,-84.8 5551.55,-48.8 5664.45,-48.8 5664.45,-84.8"/>
<text text-anchor="middle" x="5608" y="-62.6" font-family="Times,serif" font-size="14.00">SEditComponent</text>
</g>
<!-- SEditComponent&#45;&gt;SpecialiteModule -->
<g id="edge38" class="edge">
<title>SEditComponent&#45;&gt;SpecialiteModule</title>
<path fill="none" stroke="black" d="M5608,-84.91C5608,-84.91 5608,-103.79 5608,-103.79"/>
<polygon fill="black" stroke="black" points="5604.5,-103.79 5608,-113.79 5611.5,-103.79 5604.5,-103.79"/>
</g>
<!-- SIndexComponent -->
<g id="node46" class="node">
<title>SIndexComponent</title>
<polygon fill="#ffffb3" stroke="black" points="5533.49,-84.8 5412.51,-84.8 5412.51,-48.8 5533.49,-48.8 5533.49,-84.8"/>
<text text-anchor="middle" x="5473" y="-62.6" font-family="Times,serif" font-size="14.00">SIndexComponent</text>
</g>
<!-- SIndexComponent&#45;&gt;SpecialiteModule -->
<g id="edge39" class="edge">
<title>SIndexComponent&#45;&gt;SpecialiteModule</title>
<path fill="none" stroke="black" d="M5473,-84.84C5473,-106.46 5473,-139.8 5473,-139.8 5473,-139.8 5540.36,-139.8 5540.36,-139.8"/>
<polygon fill="black" stroke="black" points="5540.36,-143.3 5550.36,-139.8 5540.36,-136.3 5540.36,-143.3"/>
</g>
<!-- SpecialiteRoutingModule -->
<g id="node48" class="node">
<title>SpecialiteRoutingModule</title>
<polygon fill="#8dd3c7" stroke="black" points="5388.87,-84.8 5385.87,-88.8 5364.87,-88.8 5361.87,-84.8 5229.13,-84.8 5229.13,-48.8 5388.87,-48.8 5388.87,-84.8"/>
<text text-anchor="middle" x="5309" y="-62.6" font-family="Times,serif" font-size="14.00">SpecialiteRoutingModule</text>
</g>
<!-- SpecialiteRoutingModule&#45;&gt;SpecialiteModule -->
<g id="edge40" class="edge">
<title>SpecialiteRoutingModule&#45;&gt;SpecialiteModule</title>
<path fill="none" stroke="black" d="M5309,-84.89C5309,-107.93 5309,-144.8 5309,-144.8 5309,-144.8 5540.7,-144.8 5540.7,-144.8"/>
<polygon fill="black" stroke="black" points="5540.7,-148.3 5550.7,-144.8 5540.7,-141.3 5540.7,-148.3"/>
</g>
<!-- UAddComponent -->
<g id="node49" class="node">
<title>UAddComponent</title>
<polygon fill="#ffffb3" stroke="black" points="6670.55,-84.8 6555.45,-84.8 6555.45,-48.8 6670.55,-48.8 6670.55,-84.8"/>
<text text-anchor="middle" x="6613" y="-62.6" font-family="Times,serif" font-size="14.00">UAddComponent</text>
</g>
<!-- UserModule -->
<g id="node53" class="node">
<title>UserModule</title>
<polygon fill="#8dd3c7" stroke="black" points="6376.99,-149.8 6373.99,-153.8 6352.99,-153.8 6349.99,-149.8 6291.01,-149.8 6291.01,-113.8 6376.99,-113.8 6376.99,-149.8"/>
<text text-anchor="middle" x="6334" y="-127.6" font-family="Times,serif" font-size="14.00">UserModule</text>
</g>
<!-- UAddComponent&#45;&gt;UserModule -->
<g id="edge41" class="edge">
<title>UAddComponent&#45;&gt;UserModule</title>
<path fill="none" stroke="black" d="M6613,-85.08C6613,-106.12 6613,-137.8 6613,-137.8 6613,-137.8 6387.29,-137.8 6387.29,-137.8"/>
<polygon fill="black" stroke="black" points="6387.29,-134.3 6377.29,-137.8 6387.29,-141.3 6387.29,-134.3"/>
</g>
<!-- UDeleteComponent -->
<g id="node50" class="node">
<title>UDeleteComponent</title>
<polygon fill="#ffffb3" stroke="black" points="6536.97,-84.8 6409.03,-84.8 6409.03,-48.8 6536.97,-48.8 6536.97,-84.8"/>
<text text-anchor="middle" x="6473" y="-62.6" font-family="Times,serif" font-size="14.00">UDeleteComponent</text>
</g>
<!-- UDeleteComponent&#45;&gt;UserModule -->
<g id="edge42" class="edge">
<title>UDeleteComponent&#45;&gt;UserModule</title>
<path fill="none" stroke="black" d="M6473,-84.82C6473,-102.17 6473,-125.8 6473,-125.8 6473,-125.8 6387.22,-125.8 6387.22,-125.8"/>
<polygon fill="black" stroke="black" points="6387.22,-122.3 6377.22,-125.8 6387.22,-129.3 6387.22,-122.3"/>
</g>
<!-- UEditComponent -->
<g id="node51" class="node">
<title>UEditComponent</title>
<polygon fill="#ffffb3" stroke="black" points="6391.27,-84.8 6276.73,-84.8 6276.73,-48.8 6391.27,-48.8 6391.27,-84.8"/>
<text text-anchor="middle" x="6334" y="-62.6" font-family="Times,serif" font-size="14.00">UEditComponent</text>
</g>
<!-- UEditComponent&#45;&gt;UserModule -->
<g id="edge43" class="edge">
<title>UEditComponent&#45;&gt;UserModule</title>
<path fill="none" stroke="black" d="M6334,-84.91C6334,-84.91 6334,-103.79 6334,-103.79"/>
<polygon fill="black" stroke="black" points="6330.5,-103.79 6334,-113.79 6337.5,-103.79 6330.5,-103.79"/>
</g>
<!-- UIndexComponent -->
<g id="node52" class="node">
<title>UIndexComponent</title>
<polygon fill="#ffffb3" stroke="black" points="6258.82,-84.8 6135.18,-84.8 6135.18,-48.8 6258.82,-48.8 6258.82,-84.8"/>
<text text-anchor="middle" x="6197" y="-62.6" font-family="Times,serif" font-size="14.00">UIndexComponent</text>
</g>
<!-- UIndexComponent&#45;&gt;UserModule -->
<g id="edge44" class="edge">
<title>UIndexComponent&#45;&gt;UserModule</title>
<path fill="none" stroke="black" d="M6197,-84.93C6197,-105.37 6197,-135.8 6197,-135.8 6197,-135.8 6280.65,-135.8 6280.65,-135.8"/>
<polygon fill="black" stroke="black" points="6280.65,-139.3 6290.65,-135.8 6280.65,-132.3 6280.65,-139.3"/>
</g>
<!-- UserRoutingModule -->
<g id="node54" class="node">
<title>UserRoutingModule</title>
<polygon fill="#8dd3c7" stroke="black" points="6110.6,-84.8 6107.6,-88.8 6086.6,-88.8 6083.6,-84.8 5979.4,-84.8 5979.4,-48.8 6110.6,-48.8 6110.6,-84.8"/>
<text text-anchor="middle" x="6045" y="-62.6" font-family="Times,serif" font-size="14.00">UserRoutingModule</text>
</g>
<!-- UserRoutingModule&#45;&gt;UserModule -->
<g id="edge45" class="edge">
<title>UserRoutingModule&#45;&gt;UserModule</title>
<path fill="none" stroke="black" d="M6045,-84.81C6045,-107.29 6045,-142.8 6045,-142.8 6045,-142.8 6280.73,-142.8 6280.73,-142.8"/>
<polygon fill="black" stroke="black" points="6280.73,-146.3 6290.73,-142.8 6280.73,-139.3 6280.73,-146.3"/>
</g>
</g>
</svg>
