<?xml version="1.0" encoding="UTF-8" standalone="no"?>
<!DOCTYPE svg PUBLIC "-//W3C//DTD SVG 1.1//EN"
 "http://www.w3.org/Graphics/SVG/1.1/DTD/svg11.dtd">
<!-- Generated by graphviz version 5.0.0 (20220707.1540)
 -->
<!-- Title: dependencies Pages: 1 -->
<svg width="748pt" height="174pt"
 viewBox="0.00 0.00 748.00 173.80" xmlns="http://www.w3.org/2000/svg" xmlns:xlink="http://www.w3.org/1999/xlink">
<g id="graph0" class="graph" transform="scale(1 1) rotate(0) translate(4 169.8)">
<title>dependencies</title>
<polygon fill="white" stroke="transparent" points="-4,4 -4,-169.8 744,-169.8 744,4 -4,4"/>
<text text-anchor="middle" x="370" y="-8.2" font-family="sans-serif" font-size="14.00">dependencies</text>
<g id="clust1" class="cluster">
<title>cluster_UserModule</title>
<polygon fill="none" stroke="black" stroke-dasharray="1,5" points="8,-32.8 8,-157.8 732,-157.8 732,-32.8 8,-32.8"/>
</g>
<g id="clust7" class="cluster">
<title>cluster_UserModule_imports</title>
<polygon fill="none" stroke="black" points="576,-40.8 576,-92.8 724,-92.8 724,-40.8 576,-40.8"/>
</g>
<g id="clust2" class="cluster">
<title>cluster_UserModule_declarations</title>
<polygon fill="none" stroke="black" points="16,-40.8 16,-92.8 568,-92.8 568,-40.8 16,-40.8"/>
</g>
<!-- UAddComponent -->
<g id="node1" class="node">
<title>UAddComponent</title>
<polygon fill="#ffffb3" stroke="black" points="559.55,-84.8 444.45,-84.8 444.45,-48.8 559.55,-48.8 559.55,-84.8"/>
<text text-anchor="middle" x="502" y="-62.6" font-family="Times,serif" font-size="14.00">UAddComponent</text>
</g>
<!-- UserModule -->
<g id="node5" class="node">
<title>UserModule</title>
<polygon fill="#8dd3c7" stroke="black" points="404.99,-149.8 401.99,-153.8 380.99,-153.8 377.99,-149.8 319.01,-149.8 319.01,-113.8 404.99,-113.8 404.99,-149.8"/>
<text text-anchor="middle" x="362" y="-127.6" font-family="Times,serif" font-size="14.00">UserModule</text>
</g>
<!-- UAddComponent&#45;&gt;UserModule -->
<g id="edge1" class="edge">
<title>UAddComponent&#45;&gt;UserModule</title>
<path fill="none" stroke="black" d="M502,-84.82C502,-102.17 502,-125.8 502,-125.8 502,-125.8 415.15,-125.8 415.15,-125.8"/>
<polygon fill="black" stroke="black" points="415.15,-122.3 405.15,-125.8 415.15,-129.3 415.15,-122.3"/>
</g>
<!-- UDeleteComponent -->
<g id="node2" class="node">
<title>UDeleteComponent</title>
<polygon fill="#ffffb3" stroke="black" points="425.97,-84.8 298.03,-84.8 298.03,-48.8 425.97,-48.8 425.97,-84.8"/>
<text text-anchor="middle" x="362" y="-62.6" font-family="Times,serif" font-size="14.00">UDeleteComponent</text>
</g>
<!-- UDeleteComponent&#45;&gt;UserModule -->
<g id="edge2" class="edge">
<title>UDeleteComponent&#45;&gt;UserModule</title>
<path fill="none" stroke="black" d="M362,-84.91C362,-84.91 362,-103.79 362,-103.79"/>
<polygon fill="black" stroke="black" points="358.5,-103.79 362,-113.79 365.5,-103.79 358.5,-103.79"/>
</g>
<!-- UEditComponent -->
<g id="node3" class="node">
<title>UEditComponent</title>
<polygon fill="#ffffb3" stroke="black" points="280.27,-84.8 165.73,-84.8 165.73,-48.8 280.27,-48.8 280.27,-84.8"/>
<text text-anchor="middle" x="223" y="-62.6" font-family="Times,serif" font-size="14.00">UEditComponent</text>
</g>
<!-- UEditComponent&#45;&gt;UserModule -->
<g id="edge3" class="edge">
<title>UEditComponent&#45;&gt;UserModule</title>
<path fill="none" stroke="black" d="M223,-84.82C223,-102.17 223,-125.8 223,-125.8 223,-125.8 308.78,-125.8 308.78,-125.8"/>
<polygon fill="black" stroke="black" points="308.78,-129.3 318.78,-125.8 308.78,-122.3 308.78,-129.3"/>
</g>
<!-- UIndexComponent -->
<g id="node4" class="node">
<title>UIndexComponent</title>
<polygon fill="#ffffb3" stroke="black" points="147.82,-84.8 24.18,-84.8 24.18,-48.8 147.82,-48.8 147.82,-84.8"/>
<text text-anchor="middle" x="86" y="-62.6" font-family="Times,serif" font-size="14.00">UIndexComponent</text>
</g>
<!-- UIndexComponent&#45;&gt;UserModule -->
<g id="edge4" class="edge">
<title>UIndexComponent&#45;&gt;UserModule</title>
<path fill="none" stroke="black" d="M86,-85.08C86,-106.12 86,-137.8 86,-137.8 86,-137.8 308.88,-137.8 308.88,-137.8"/>
<polygon fill="black" stroke="black" points="308.88,-141.3 318.88,-137.8 308.87,-134.3 308.88,-141.3"/>
</g>
<!-- UserRoutingModule -->
<g id="node6" class="node">
<title>UserRoutingModule</title>
<polygon fill="#8dd3c7" stroke="black" points="715.6,-84.8 712.6,-88.8 691.6,-88.8 688.6,-84.8 584.4,-84.8 584.4,-48.8 715.6,-48.8 715.6,-84.8"/>
<text text-anchor="middle" x="650" y="-62.6" font-family="Times,serif" font-size="14.00">UserRoutingModule</text>
</g>
<!-- UserRoutingModule&#45;&gt;UserModule -->
<g id="edge5" class="edge">
<title>UserRoutingModule&#45;&gt;UserModule</title>
<path fill="none" stroke="black" d="M650,-85.08C650,-106.12 650,-137.8 650,-137.8 650,-137.8 415.12,-137.8 415.12,-137.8"/>
<polygon fill="black" stroke="black" points="415.12,-134.3 405.12,-137.8 415.12,-141.3 415.12,-134.3"/>
</g>
</g>
</svg>
