<?xml version="1.0" encoding="UTF-8" standalone="no"?>
<!DOCTYPE svg PUBLIC "-//W3C//DTD SVG 1.1//EN"
 "http://www.w3.org/Graphics/SVG/1.1/DTD/svg11.dtd">
<!-- Generated by graphviz version 5.0.0 (20220707.1540)
 -->
<!-- Title: dependencies Pages: 1 -->
<svg width="764pt" height="174pt"
 viewBox="0.00 0.00 764.00 173.80" xmlns="http://www.w3.org/2000/svg" xmlns:xlink="http://www.w3.org/1999/xlink">
<g id="graph0" class="graph" transform="scale(1 1) rotate(0) translate(4 169.8)">
<title>dependencies</title>
<polygon fill="white" stroke="transparent" points="-4,4 -4,-169.8 760,-169.8 760,4 -4,4"/>
<text text-anchor="middle" x="378" y="-8.2" font-family="sans-serif" font-size="14.00">dependencies</text>
<g id="clust1" class="cluster">
<title>cluster_HoraireModule</title>
<polygon fill="none" stroke="black" stroke-dasharray="1,5" points="8,-32.8 8,-157.8 748,-157.8 748,-32.8 8,-32.8"/>
</g>
<g id="clust2" class="cluster">
<title>cluster_HoraireModule_declarations</title>
<polygon fill="none" stroke="black" points="188,-40.8 188,-92.8 740,-92.8 740,-40.8 188,-40.8"/>
</g>
<g id="clust7" class="cluster">
<title>cluster_HoraireModule_imports</title>
<polygon fill="none" stroke="black" points="16,-40.8 16,-92.8 180,-92.8 180,-40.8 16,-40.8"/>
</g>
<!-- HAddComponent -->
<g id="node1" class="node">
<title>HAddComponent</title>
<polygon fill="#ffffb3" stroke="black" points="731.55,-84.8 616.45,-84.8 616.45,-48.8 731.55,-48.8 731.55,-84.8"/>
<text text-anchor="middle" x="674" y="-62.6" font-family="Times,serif" font-size="14.00">HAddComponent</text>
</g>
<!-- HoraireModule -->
<g id="node5" class="node">
<title>HoraireModule</title>
<polygon fill="#8dd3c7" stroke="black" points="446.3,-149.8 443.3,-153.8 422.3,-153.8 419.3,-149.8 343.7,-149.8 343.7,-113.8 446.3,-113.8 446.3,-149.8"/>
<text text-anchor="middle" x="395" y="-127.6" font-family="Times,serif" font-size="14.00">HoraireModule</text>
</g>
<!-- HAddComponent&#45;&gt;HoraireModule -->
<g id="edge1" class="edge">
<title>HAddComponent&#45;&gt;HoraireModule</title>
<path fill="none" stroke="black" d="M674,-85.08C674,-106.12 674,-137.8 674,-137.8 674,-137.8 456.17,-137.8 456.17,-137.8"/>
<polygon fill="black" stroke="black" points="456.17,-134.3 446.17,-137.8 456.17,-141.3 456.17,-134.3"/>
</g>
<!-- HDeleteComponent -->
<g id="node2" class="node">
<title>HDeleteComponent</title>
<polygon fill="#ffffb3" stroke="black" points="597.97,-84.8 470.03,-84.8 470.03,-48.8 597.97,-48.8 597.97,-84.8"/>
<text text-anchor="middle" x="534" y="-62.6" font-family="Times,serif" font-size="14.00">HDeleteComponent</text>
</g>
<!-- HDeleteComponent&#45;&gt;HoraireModule -->
<g id="edge2" class="edge">
<title>HDeleteComponent&#45;&gt;HoraireModule</title>
<path fill="none" stroke="black" d="M534,-84.82C534,-102.17 534,-125.8 534,-125.8 534,-125.8 456.36,-125.8 456.36,-125.8"/>
<polygon fill="black" stroke="black" points="456.36,-122.3 446.36,-125.8 456.36,-129.3 456.36,-122.3"/>
</g>
<!-- HEditComponent -->
<g id="node3" class="node">
<title>HEditComponent</title>
<polygon fill="#ffffb3" stroke="black" points="452.27,-84.8 337.73,-84.8 337.73,-48.8 452.27,-48.8 452.27,-84.8"/>
<text text-anchor="middle" x="395" y="-62.6" font-family="Times,serif" font-size="14.00">HEditComponent</text>
</g>
<!-- HEditComponent&#45;&gt;HoraireModule -->
<g id="edge3" class="edge">
<title>HEditComponent&#45;&gt;HoraireModule</title>
<path fill="none" stroke="black" d="M395,-84.91C395,-84.91 395,-103.79 395,-103.79"/>
<polygon fill="black" stroke="black" points="391.5,-103.79 395,-113.79 398.5,-103.79 391.5,-103.79"/>
</g>
<!-- HIndexComponent -->
<g id="node4" class="node">
<title>HIndexComponent</title>
<polygon fill="#ffffb3" stroke="black" points="319.82,-84.8 196.18,-84.8 196.18,-48.8 319.82,-48.8 319.82,-84.8"/>
<text text-anchor="middle" x="258" y="-62.6" font-family="Times,serif" font-size="14.00">HIndexComponent</text>
</g>
<!-- HIndexComponent&#45;&gt;HoraireModule -->
<g id="edge4" class="edge">
<title>HIndexComponent&#45;&gt;HoraireModule</title>
<path fill="none" stroke="black" d="M258,-84.82C258,-102.17 258,-125.8 258,-125.8 258,-125.8 333.6,-125.8 333.6,-125.8"/>
<polygon fill="black" stroke="black" points="333.6,-129.3 343.6,-125.8 333.6,-122.3 333.6,-129.3"/>
</g>
<!-- HoraireRoutingModule -->
<g id="node6" class="node">
<title>HoraireRoutingModule</title>
<polygon fill="#8dd3c7" stroke="black" points="171.92,-84.8 168.92,-88.8 147.92,-88.8 144.92,-84.8 24.08,-84.8 24.08,-48.8 171.92,-48.8 171.92,-84.8"/>
<text text-anchor="middle" x="98" y="-62.6" font-family="Times,serif" font-size="14.00">HoraireRoutingModule</text>
</g>
<!-- HoraireRoutingModule&#45;&gt;HoraireModule -->
<g id="edge5" class="edge">
<title>HoraireRoutingModule&#45;&gt;HoraireModule</title>
<path fill="none" stroke="black" d="M98,-85.08C98,-106.12 98,-137.8 98,-137.8 98,-137.8 333.61,-137.8 333.61,-137.8"/>
<polygon fill="black" stroke="black" points="333.61,-141.3 343.61,-137.8 333.61,-134.3 333.61,-141.3"/>
</g>
</g>
</svg>
