<?xml version="1.0" encoding="UTF-8" standalone="no"?>
<!DOCTYPE svg PUBLIC "-//W3C//DTD SVG 1.1//EN"
 "http://www.w3.org/Graphics/SVG/1.1/DTD/svg11.dtd">
<!-- Generated by graphviz version 5.0.0 (20220707.1540)
 -->
<!-- Title: dependencies Pages: 1 -->
<svg width="582pt" height="247pt"
 viewBox="0.00 0.00 582.00 246.80" xmlns="http://www.w3.org/2000/svg" xmlns:xlink="http://www.w3.org/1999/xlink">
<g id="graph0" class="graph" transform="scale(1 1) rotate(0) translate(4 242.8)">
<title>dependencies</title>
<polygon fill="white" stroke="transparent" points="-4,4 -4,-242.8 578,-242.8 578,4 -4,4"/>
<text text-anchor="middle" x="287" y="-8.2" font-family="sans-serif" font-size="14.00">dependencies</text>
<g id="clust1" class="cluster">
<title>cluster_AppModule</title>
<polygon fill="none" stroke="black" stroke-dasharray="1,5" points="8,-32.8 8,-230.8 566,-230.8 566,-32.8 8,-32.8"/>
</g>
<g id="clust6" class="cluster">
<title>cluster_AppModule_imports</title>
<polygon fill="none" stroke="black" points="414,-40.8 414,-92.8 558,-92.8 558,-40.8 414,-40.8"/>
</g>
<g id="clust2" class="cluster">
<title>cluster_AppModule_declarations</title>
<polygon fill="none" stroke="black" points="16,-40.8 16,-92.8 406,-92.8 406,-40.8 16,-40.8"/>
</g>
<g id="clust8" class="cluster">
<title>cluster_AppModule_bootstrap</title>
<polygon fill="none" stroke="black" points="220,-170.8 220,-222.8 344,-222.8 344,-170.8 220,-170.8"/>
</g>
<!-- AppComponent -->
<g id="node1" class="node">
<title>AppComponent</title>
<polygon fill="#ffffb3" stroke="black" points="397.94,-84.8 292.06,-84.8 292.06,-48.8 397.94,-48.8 397.94,-84.8"/>
<text text-anchor="middle" x="345" y="-62.6" font-family="Times,serif" font-size="14.00">AppComponent</text>
</g>
<!-- AppModule -->
<g id="node4" class="node">
<title>AppModule</title>
<polygon fill="#8dd3c7" stroke="black" points="323.66,-149.8 320.66,-153.8 299.66,-153.8 296.66,-149.8 240.34,-149.8 240.34,-113.8 323.66,-113.8 323.66,-149.8"/>
<text text-anchor="middle" x="282" y="-127.6" font-family="Times,serif" font-size="14.00">AppModule</text>
</g>
<!-- AppComponent&#45;&gt;AppModule -->
<g id="edge1" class="edge">
<title>AppComponent&#45;&gt;AppModule</title>
<path fill="none" stroke="black" d="M308.06,-84.91C308.06,-84.91 308.06,-103.79 308.06,-103.79"/>
<polygon fill="black" stroke="black" points="304.56,-103.79 308.06,-113.79 311.56,-103.79 304.56,-103.79"/>
</g>
<!-- ErrorComponent -->
<g id="node2" class="node">
<title>ErrorComponent</title>
<polygon fill="#ffffb3" stroke="black" points="274.37,-84.8 163.63,-84.8 163.63,-48.8 274.37,-48.8 274.37,-84.8"/>
<text text-anchor="middle" x="219" y="-62.6" font-family="Times,serif" font-size="14.00">ErrorComponent</text>
</g>
<!-- ErrorComponent&#45;&gt;AppModule -->
<g id="edge2" class="edge">
<title>ErrorComponent&#45;&gt;AppModule</title>
<path fill="none" stroke="black" d="M257.3,-84.91C257.3,-84.91 257.3,-103.79 257.3,-103.79"/>
<polygon fill="black" stroke="black" points="253.8,-103.79 257.3,-113.79 260.8,-103.79 253.8,-103.79"/>
</g>
<!-- HeaderComponent -->
<g id="node3" class="node">
<title>HeaderComponent</title>
<polygon fill="#ffffb3" stroke="black" points="145.75,-84.8 24.25,-84.8 24.25,-48.8 145.75,-48.8 145.75,-84.8"/>
<text text-anchor="middle" x="85" y="-62.6" font-family="Times,serif" font-size="14.00">HeaderComponent</text>
</g>
<!-- HeaderComponent&#45;&gt;AppModule -->
<g id="edge3" class="edge">
<title>HeaderComponent&#45;&gt;AppModule</title>
<path fill="none" stroke="black" d="M85,-84.91C85,-104.14 85,-131.8 85,-131.8 85,-131.8 230.22,-131.8 230.22,-131.8"/>
<polygon fill="black" stroke="black" points="230.22,-135.3 240.22,-131.8 230.22,-128.3 230.22,-135.3"/>
</g>
<!-- AppComponent  -->
<g id="node6" class="node">
<title>AppComponent </title>
<polygon fill="#80b1d3" stroke="black" points="336.44,-214.8 227.56,-214.8 227.56,-178.8 336.44,-178.8 336.44,-214.8"/>
<text text-anchor="middle" x="282" y="-192.6" font-family="Times,serif" font-size="14.00">AppComponent </text>
</g>
<!-- AppModule&#45;&gt;AppComponent  -->
<g id="edge5" class="edge">
<title>AppModule&#45;&gt;AppComponent </title>
<path fill="none" stroke="black" stroke-dasharray="1,5" d="M282,-149.91C282,-149.91 282,-168.79 282,-168.79"/>
<polygon fill="black" stroke="black" points="278.5,-168.79 282,-178.79 285.5,-168.79 278.5,-168.79"/>
</g>
<!-- AppRoutingModule -->
<g id="node5" class="node">
<title>AppRoutingModule</title>
<polygon fill="#8dd3c7" stroke="black" points="550.28,-84.8 547.28,-88.8 526.28,-88.8 523.28,-84.8 421.72,-84.8 421.72,-48.8 550.28,-48.8 550.28,-84.8"/>
<text text-anchor="middle" x="486" y="-62.6" font-family="Times,serif" font-size="14.00">AppRoutingModule</text>
</g>
<!-- AppRoutingModule&#45;&gt;AppModule -->
<g id="edge4" class="edge">
<title>AppRoutingModule&#45;&gt;AppModule</title>
<path fill="none" stroke="black" d="M486,-84.91C486,-104.14 486,-131.8 486,-131.8 486,-131.8 333.77,-131.8 333.77,-131.8"/>
<polygon fill="black" stroke="black" points="333.77,-128.3 323.77,-131.8 333.77,-135.3 333.77,-128.3"/>
</g>
</g>
</svg>
