<?xml version="1.0" encoding="UTF-8" standalone="no"?>
<!DOCTYPE svg PUBLIC "-//W3C//DTD SVG 1.1//EN"
 "http://www.w3.org/Graphics/SVG/1.1/DTD/svg11.dtd">
<!-- Generated by graphviz version 5.0.0 (20220707.1540)
 -->
<!-- Title: dependencies Pages: 1 -->
<svg width="779pt" height="174pt"
 viewBox="0.00 0.00 779.00 173.80" xmlns="http://www.w3.org/2000/svg" xmlns:xlink="http://www.w3.org/1999/xlink">
<g id="graph0" class="graph" transform="scale(1 1) rotate(0) translate(4 169.8)">
<title>dependencies</title>
<polygon fill="white" stroke="transparent" points="-4,4 -4,-169.8 775,-169.8 775,4 -4,4"/>
<text text-anchor="middle" x="385.5" y="-8.2" font-family="sans-serif" font-size="14.00">dependencies</text>
<g id="clust1" class="cluster">
<title>cluster_MedecinModule</title>
<polygon fill="none" stroke="black" stroke-dasharray="1,5" points="8,-32.8 8,-157.8 763,-157.8 763,-32.8 8,-32.8"/>
</g>
<g id="clust7" class="cluster">
<title>cluster_MedecinModule_imports</title>
<polygon fill="none" stroke="black" points="585,-40.8 585,-92.8 755,-92.8 755,-40.8 585,-40.8"/>
</g>
<g id="clust2" class="cluster">
<title>cluster_MedecinModule_declarations</title>
<polygon fill="none" stroke="black" points="16,-40.8 16,-92.8 577,-92.8 577,-40.8 16,-40.8"/>
</g>
<!-- MAddComponent -->
<g id="node1" class="node">
<title>MAddComponent</title>
<polygon fill="#ffffb3" stroke="black" points="568.89,-84.8 451.11,-84.8 451.11,-48.8 568.89,-48.8 568.89,-84.8"/>
<text text-anchor="middle" x="510" y="-62.6" font-family="Times,serif" font-size="14.00">MAddComponent</text>
</g>
<!-- MedecinModule -->
<g id="node5" class="node">
<title>MedecinModule</title>
<polygon fill="#8dd3c7" stroke="black" points="422.03,-149.8 419.03,-153.8 398.03,-153.8 395.03,-149.8 313.97,-149.8 313.97,-113.8 422.03,-113.8 422.03,-149.8"/>
<text text-anchor="middle" x="368" y="-127.6" font-family="Times,serif" font-size="14.00">MedecinModule</text>
</g>
<!-- MAddComponent&#45;&gt;MedecinModule -->
<g id="edge1" class="edge">
<title>MAddComponent&#45;&gt;MedecinModule</title>
<path fill="none" stroke="black" d="M510,-84.82C510,-102.17 510,-125.8 510,-125.8 510,-125.8 432.09,-125.8 432.09,-125.8"/>
<polygon fill="black" stroke="black" points="432.09,-122.3 422.09,-125.8 432.09,-129.3 432.09,-122.3"/>
</g>
<!-- MDeleteComponent -->
<g id="node2" class="node">
<title>MDeleteComponent</title>
<polygon fill="#ffffb3" stroke="black" points="433.31,-84.8 302.69,-84.8 302.69,-48.8 433.31,-48.8 433.31,-84.8"/>
<text text-anchor="middle" x="368" y="-62.6" font-family="Times,serif" font-size="14.00">MDeleteComponent</text>
</g>
<!-- MDeleteComponent&#45;&gt;MedecinModule -->
<g id="edge2" class="edge">
<title>MDeleteComponent&#45;&gt;MedecinModule</title>
<path fill="none" stroke="black" d="M368,-84.91C368,-84.91 368,-103.79 368,-103.79"/>
<polygon fill="black" stroke="black" points="364.5,-103.79 368,-113.79 371.5,-103.79 364.5,-103.79"/>
</g>
<!-- MEditComponent -->
<g id="node3" class="node">
<title>MEditComponent</title>
<polygon fill="#ffffb3" stroke="black" points="284.61,-84.8 167.39,-84.8 167.39,-48.8 284.61,-48.8 284.61,-84.8"/>
<text text-anchor="middle" x="226" y="-62.6" font-family="Times,serif" font-size="14.00">MEditComponent</text>
</g>
<!-- MEditComponent&#45;&gt;MedecinModule -->
<g id="edge3" class="edge">
<title>MEditComponent&#45;&gt;MedecinModule</title>
<path fill="none" stroke="black" d="M226,-84.82C226,-102.17 226,-125.8 226,-125.8 226,-125.8 303.91,-125.8 303.91,-125.8"/>
<polygon fill="black" stroke="black" points="303.91,-129.3 313.91,-125.8 303.91,-122.3 303.91,-129.3"/>
</g>
<!-- MIndexComponent -->
<g id="node4" class="node">
<title>MIndexComponent</title>
<polygon fill="#ffffb3" stroke="black" points="149.66,-84.8 24.34,-84.8 24.34,-48.8 149.66,-48.8 149.66,-84.8"/>
<text text-anchor="middle" x="87" y="-62.6" font-family="Times,serif" font-size="14.00">MIndexComponent</text>
</g>
<!-- MIndexComponent&#45;&gt;MedecinModule -->
<g id="edge4" class="edge">
<title>MIndexComponent&#45;&gt;MedecinModule</title>
<path fill="none" stroke="black" d="M87,-85.08C87,-106.12 87,-137.8 87,-137.8 87,-137.8 303.82,-137.8 303.82,-137.8"/>
<polygon fill="black" stroke="black" points="303.82,-141.3 313.82,-137.8 303.82,-134.3 303.82,-141.3"/>
</g>
<!-- MedecinRoutingModule -->
<g id="node6" class="node">
<title>MedecinRoutingModule</title>
<polygon fill="#8dd3c7" stroke="black" points="746.65,-84.8 743.65,-88.8 722.65,-88.8 719.65,-84.8 593.35,-84.8 593.35,-48.8 746.65,-48.8 746.65,-84.8"/>
<text text-anchor="middle" x="670" y="-62.6" font-family="Times,serif" font-size="14.00">MedecinRoutingModule</text>
</g>
<!-- MedecinRoutingModule&#45;&gt;MedecinModule -->
<g id="edge5" class="edge">
<title>MedecinRoutingModule&#45;&gt;MedecinModule</title>
<path fill="none" stroke="black" d="M670,-85.08C670,-106.12 670,-137.8 670,-137.8 670,-137.8 432.34,-137.8 432.34,-137.8"/>
<polygon fill="black" stroke="black" points="432.34,-134.3 422.34,-137.8 432.34,-141.3 432.34,-134.3"/>
</g>
</g>
</svg>
