<?xml version="1.0" encoding="UTF-8" standalone="no"?>
<!DOCTYPE svg PUBLIC "-//W3C//DTD SVG 1.1//EN"
 "http://www.w3.org/Graphics/SVG/1.1/DTD/svg11.dtd">
<!-- Generated by graphviz version 5.0.0 (20220707.1540)
 -->
<!-- Title: dependencies Pages: 1 -->
<svg width="766pt" height="174pt"
 viewBox="0.00 0.00 766.00 173.80" xmlns="http://www.w3.org/2000/svg" xmlns:xlink="http://www.w3.org/1999/xlink">
<g id="graph0" class="graph" transform="scale(1 1) rotate(0) translate(4 169.8)">
<title>dependencies</title>
<polygon fill="white" stroke="transparent" points="-4,4 -4,-169.8 762,-169.8 762,4 -4,4"/>
<text text-anchor="middle" x="379" y="-8.2" font-family="sans-serif" font-size="14.00">dependencies</text>
<g id="clust1" class="cluster">
<title>cluster_SpecialiteModule</title>
<polygon fill="none" stroke="black" stroke-dasharray="1,5" points="8,-32.8 8,-157.8 750,-157.8 750,-32.8 8,-32.8"/>
</g>
<g id="clust2" class="cluster">
<title>cluster_SpecialiteModule_declarations</title>
<polygon fill="none" stroke="black" points="200,-40.8 200,-92.8 742,-92.8 742,-40.8 200,-40.8"/>
</g>
<g id="clust7" class="cluster">
<title>cluster_SpecialiteModule_imports</title>
<polygon fill="none" stroke="black" points="16,-40.8 16,-92.8 192,-92.8 192,-40.8 16,-40.8"/>
</g>
<!-- SAddComponent -->
<g id="node1" class="node">
<title>SAddComponent</title>
<polygon fill="#ffffb3" stroke="black" points="733.73,-84.8 620.27,-84.8 620.27,-48.8 733.73,-48.8 733.73,-84.8"/>
<text text-anchor="middle" x="677" y="-62.6" font-family="Times,serif" font-size="14.00">SAddComponent</text>
</g>
<!-- SpecialiteModule -->
<g id="node5" class="node">
<title>SpecialiteModule</title>
<polygon fill="#8dd3c7" stroke="black" points="460.25,-149.8 457.25,-153.8 436.25,-153.8 433.25,-149.8 345.75,-149.8 345.75,-113.8 460.25,-113.8 460.25,-149.8"/>
<text text-anchor="middle" x="403" y="-127.6" font-family="Times,serif" font-size="14.00">SpecialiteModule</text>
</g>
<!-- SAddComponent&#45;&gt;SpecialiteModule -->
<g id="edge1" class="edge">
<title>SAddComponent&#45;&gt;SpecialiteModule</title>
<path fill="none" stroke="black" d="M677,-85.08C677,-106.12 677,-137.8 677,-137.8 677,-137.8 470.44,-137.8 470.44,-137.8"/>
<polygon fill="black" stroke="black" points="470.44,-134.3 460.44,-137.8 470.44,-141.3 470.44,-134.3"/>
</g>
<!-- SDeleteComponent -->
<g id="node2" class="node">
<title>SDeleteComponent</title>
<polygon fill="#ffffb3" stroke="black" points="602.65,-84.8 477.35,-84.8 477.35,-48.8 602.65,-48.8 602.65,-84.8"/>
<text text-anchor="middle" x="540" y="-62.6" font-family="Times,serif" font-size="14.00">SDeleteComponent</text>
</g>
<!-- SDeleteComponent&#45;&gt;SpecialiteModule -->
<g id="edge2" class="edge">
<title>SDeleteComponent&#45;&gt;SpecialiteModule</title>
<path fill="none" stroke="black" d="M540,-84.82C540,-102.17 540,-125.8 540,-125.8 540,-125.8 470.31,-125.8 470.31,-125.8"/>
<polygon fill="black" stroke="black" points="470.31,-122.3 460.31,-125.8 470.31,-129.3 470.31,-122.3"/>
</g>
<!-- SEditComponent -->
<g id="node3" class="node">
<title>SEditComponent</title>
<polygon fill="#ffffb3" stroke="black" points="459.45,-84.8 346.55,-84.8 346.55,-48.8 459.45,-48.8 459.45,-84.8"/>
<text text-anchor="middle" x="403" y="-62.6" font-family="Times,serif" font-size="14.00">SEditComponent</text>
</g>
<!-- SEditComponent&#45;&gt;SpecialiteModule -->
<g id="edge3" class="edge">
<title>SEditComponent&#45;&gt;SpecialiteModule</title>
<path fill="none" stroke="black" d="M403,-84.91C403,-84.91 403,-103.79 403,-103.79"/>
<polygon fill="black" stroke="black" points="399.5,-103.79 403,-113.79 406.5,-103.79 399.5,-103.79"/>
</g>
<!-- SIndexComponent -->
<g id="node4" class="node">
<title>SIndexComponent</title>
<polygon fill="#ffffb3" stroke="black" points="328.49,-84.8 207.51,-84.8 207.51,-48.8 328.49,-48.8 328.49,-84.8"/>
<text text-anchor="middle" x="268" y="-62.6" font-family="Times,serif" font-size="14.00">SIndexComponent</text>
</g>
<!-- SIndexComponent&#45;&gt;SpecialiteModule -->
<g id="edge4" class="edge">
<title>SIndexComponent&#45;&gt;SpecialiteModule</title>
<path fill="none" stroke="black" d="M268,-84.82C268,-102.17 268,-125.8 268,-125.8 268,-125.8 335.36,-125.8 335.36,-125.8"/>
<polygon fill="black" stroke="black" points="335.36,-129.3 345.36,-125.8 335.36,-122.3 335.36,-129.3"/>
</g>
<!-- SpecialiteRoutingModule -->
<g id="node6" class="node">
<title>SpecialiteRoutingModule</title>
<polygon fill="#8dd3c7" stroke="black" points="183.87,-84.8 180.87,-88.8 159.87,-88.8 156.87,-84.8 24.13,-84.8 24.13,-48.8 183.87,-48.8 183.87,-84.8"/>
<text text-anchor="middle" x="104" y="-62.6" font-family="Times,serif" font-size="14.00">SpecialiteRoutingModule</text>
</g>
<!-- SpecialiteRoutingModule&#45;&gt;SpecialiteModule -->
<g id="edge5" class="edge">
<title>SpecialiteRoutingModule&#45;&gt;SpecialiteModule</title>
<path fill="none" stroke="black" d="M104,-85.08C104,-106.12 104,-137.8 104,-137.8 104,-137.8 335.7,-137.8 335.7,-137.8"/>
<polygon fill="black" stroke="black" points="335.7,-141.3 345.7,-137.8 335.7,-134.3 335.7,-141.3"/>
</g>
</g>
</svg>
