<?xml version="1.0" encoding="UTF-8" standalone="no"?>
<!DOCTYPE svg PUBLIC "-//W3C//DTD SVG 1.1//EN"
 "http://www.w3.org/Graphics/SVG/1.1/DTD/svg11.dtd">
<!-- Generated by graphviz version 5.0.0 (20220707.1540)
 -->
<!-- Title: dependencies Pages: 1 -->
<svg width="702pt" height="174pt"
 viewBox="0.00 0.00 702.00 173.80" xmlns="http://www.w3.org/2000/svg" xmlns:xlink="http://www.w3.org/1999/xlink">
<g id="graph0" class="graph" transform="scale(1 1) rotate(0) translate(4 169.8)">
<title>dependencies</title>
<polygon fill="white" stroke="transparent" points="-4,4 -4,-169.8 698,-169.8 698,4 -4,4"/>
<text text-anchor="middle" x="347" y="-8.2" font-family="sans-serif" font-size="14.00">dependencies</text>
<g id="clust1" class="cluster">
<title>cluster_AdminModule</title>
<polygon fill="none" stroke="black" stroke-dasharray="1,5" points="8,-32.8 8,-157.8 686,-157.8 686,-32.8 8,-32.8"/>
</g>
<g id="clust2" class="cluster">
<title>cluster_AdminModule_declarations</title>
<polygon fill="none" stroke="black" points="184,-40.8 184,-92.8 678,-92.8 678,-40.8 184,-40.8"/>
</g>
<g id="clust6" class="cluster">
<title>cluster_AdminModule_imports</title>
<polygon fill="none" stroke="black" points="16,-40.8 16,-92.8 176,-92.8 176,-40.8 16,-40.8"/>
</g>
<!-- AdminLayoutComponent -->
<g id="node1" class="node">
<title>AdminLayoutComponent</title>
<polygon fill="#ffffb3" stroke="black" points="669.88,-84.8 510.12,-84.8 510.12,-48.8 669.88,-48.8 669.88,-84.8"/>
<text text-anchor="middle" x="590" y="-62.6" font-family="Times,serif" font-size="14.00">AdminLayoutComponent</text>
</g>
<!-- AdminModule -->
<g id="node4" class="node">
<title>AdminModule</title>
<polygon fill="#8dd3c7" stroke="black" points="390.44,-149.8 387.44,-153.8 366.44,-153.8 363.44,-149.8 291.56,-149.8 291.56,-113.8 390.44,-113.8 390.44,-149.8"/>
<text text-anchor="middle" x="341" y="-127.6" font-family="Times,serif" font-size="14.00">AdminModule</text>
</g>
<!-- AdminLayoutComponent&#45;&gt;AdminModule -->
<g id="edge1" class="edge">
<title>AdminLayoutComponent&#45;&gt;AdminModule</title>
<path fill="none" stroke="black" d="M590,-84.91C590,-104.14 590,-131.8 590,-131.8 590,-131.8 400.49,-131.8 400.49,-131.8"/>
<polygon fill="black" stroke="black" points="400.49,-128.3 390.49,-131.8 400.49,-135.3 400.49,-128.3"/>
</g>
<!-- DashboardComponent -->
<g id="node2" class="node">
<title>DashboardComponent</title>
<polygon fill="#ffffb3" stroke="black" points="491.98,-84.8 350.02,-84.8 350.02,-48.8 491.98,-48.8 491.98,-84.8"/>
<text text-anchor="middle" x="421" y="-62.6" font-family="Times,serif" font-size="14.00">DashboardComponent</text>
</g>
<!-- DashboardComponent&#45;&gt;AdminModule -->
<g id="edge2" class="edge">
<title>DashboardComponent&#45;&gt;AdminModule</title>
<path fill="none" stroke="black" d="M370.12,-84.91C370.12,-84.91 370.12,-103.79 370.12,-103.79"/>
<polygon fill="black" stroke="black" points="366.62,-103.79 370.12,-113.79 373.62,-103.79 366.62,-103.79"/>
</g>
<!-- SedemenuComponent -->
<g id="node3" class="node">
<title>SedemenuComponent</title>
<polygon fill="#ffffb3" stroke="black" points="331.65,-84.8 192.35,-84.8 192.35,-48.8 331.65,-48.8 331.65,-84.8"/>
<text text-anchor="middle" x="262" y="-62.6" font-family="Times,serif" font-size="14.00">SedemenuComponent</text>
</g>
<!-- SedemenuComponent&#45;&gt;AdminModule -->
<g id="edge3" class="edge">
<title>SedemenuComponent&#45;&gt;AdminModule</title>
<path fill="none" stroke="black" d="M311.8,-84.91C311.8,-84.91 311.8,-103.79 311.8,-103.79"/>
<polygon fill="black" stroke="black" points="308.3,-103.79 311.8,-113.79 315.3,-103.79 308.3,-103.79"/>
</g>
<!-- AdminRoutingModule -->
<g id="node5" class="node">
<title>AdminRoutingModule</title>
<polygon fill="#8dd3c7" stroke="black" points="167.56,-84.8 164.56,-88.8 143.56,-88.8 140.56,-84.8 24.44,-84.8 24.44,-48.8 167.56,-48.8 167.56,-84.8"/>
<text text-anchor="middle" x="96" y="-62.6" font-family="Times,serif" font-size="14.00">AdminRoutingModule</text>
</g>
<!-- AdminRoutingModule&#45;&gt;AdminModule -->
<g id="edge4" class="edge">
<title>AdminRoutingModule&#45;&gt;AdminModule</title>
<path fill="none" stroke="black" d="M96,-84.91C96,-104.14 96,-131.8 96,-131.8 96,-131.8 281.72,-131.8 281.72,-131.8"/>
<polygon fill="black" stroke="black" points="281.72,-135.3 291.72,-131.8 281.72,-128.3 281.72,-135.3"/>
</g>
</g>
</svg>
